<svg id="Layer_1" data-name="Layer 1" xmlns="http://www.w3.org/2000/svg" viewBox="0 0 460 350"><defs><style>.cls-1{fill:#db3729;}.cls-2{fill:#ffc1b4;opacity:0.62;}.cls-3{fill:#fff;}</style></defs><circle class="cls-1" cx="230" cy="175" r="174"/><path class="cls-2" d="M246.11,252.62c15.4,11.15-9,59.34-7.13,59.92,1.08.34,7.5-16.73,15.53-17s13.12,18,16,17.41c2.37-.46,3-11.52-1-23.84-6.87-20.82-22.93-32-17.56-38.56,1-1.29,3-.78,4.84-2.7,2.28-2.43,3.33-7.11,0-9.95-3.59-3.05-9.7-1.8-13,0-.43.24-4.81,2.72-4.83,6.43C239,248.41,244.24,251.27,246.11,252.62Z"/><path class="cls-2" d="M206.77,252.67c-15.4,11.15,9,59.34,7.13,59.92-1.09.34-7.5-16.73-15.53-17s-13.12,18-16,17.41c-2.38-.46-3.05-11.52,1-23.84,6.88-20.82,22.94-32,17.57-38.56-1.06-1.29-3-.78-4.84-2.7-2.28-2.43-3.33-7.11,0-10,3.58-3,9.7-1.8,13,0,.44.24,4.82,2.72,4.84,6.43C213.92,248.46,208.64,251.32,206.77,252.67Z"/><path class="cls-3" d="M254.15,244.8c15.4,13.69-9,72.85-7.13,73.56,1.09.42,7.5-20.54,15.53-20.87s13.12,22.08,16,21.38c2.37-.57,3-14.15-1-29.27C270.69,264,254.63,250.31,260,242.25c1.06-1.58,3-1,4.84-3.31,2.28-3,3.33-8.73,0-12.22-3.58-3.74-9.7-2.21-13,0-.44.3-4.82,3.34-4.84,7.89C247,239.63,252.28,243.14,254.15,244.8Z"/><path class="cls-3" d="M213.75,244.86c-15.41,13.69,9,72.85,7.12,73.56-1.08.42-7.5-20.53-15.52-20.87s-13.12,22.08-16,21.38c-2.37-.57-3.05-14.15,1-29.27,6.87-25.57,22.93-39.28,17.56-47.35-1-1.58-3-.95-4.84-3.31-2.28-3-3.33-8.73,0-12.21,3.59-3.75,9.71-2.22,13,0,.43.29,4.81,3.34,4.83,7.89C220.9,239.69,215.61,243.2,213.75,244.86Z"/><path class="cls-3" d="M153.52,163a.48.48,0,0,1-.34-.14.52.52,0,0,1-.14-.38v-3.2a.48.48,0,0,1,.48-.48h4.2V139.45h-3.6a.48.48,0,0,1-.34-.14.52.52,0,0,1-.14-.38v-3.2a.48.48,0,0,1,.48-.48h11.72a.48.48,0,0,1,.48.48v3.2c0,.35-.16.52-.48.52h-3.6v19.36h4.2a.48.48,0,0,1,.48.48v3.2c0,.35-.16.52-.48.52Z"/><path class="cls-3" d="M184,163a.42.42,0,0,1-.34-.18.64.64,0,0,1-.14-.38V151.29a8.76,8.76,0,0,0-.74-4.16,2.4,2.4,0,0,0-2.22-1.28,3.49,3.49,0,0,0-2.86,1.46,6.73,6.73,0,0,0-1.14,4.22v11c0,.35-.16.52-.48.52h-3.28a.42.42,0,0,1-.34-.18.64.64,0,0,1-.14-.38V148.09c0-1,0-2,0-2.92s-.05-1.67-.1-2.2c-.05-.35.13-.52.56-.52h3.12c.29,0,.41.11.36.32l0,1.46a5.62,5.62,0,0,1,1.9-1.65,5.14,5.14,0,0,1,2.58-.69,6.73,6.73,0,0,1,5,2.14q2.1,2.15,2.1,6.66v11.8c0,.35-.16.52-.48.52Z"/><path class="cls-3" d="M207.84,162.57a16.93,16.93,0,0,1-3,.76,13,13,0,0,1-2.54.2,6.71,6.71,0,0,1-3.32-.7,4.18,4.18,0,0,1-1.72-1.62,6.27,6.27,0,0,1-.68-2.44c-.08-.93-.12-2.2-.12-3.8v-7.56h-4.4a.48.48,0,0,1-.48-.48v-3.16a.48.48,0,0,1,.48-.48h4.4v-5.8a.43.43,0,0,1,.16-.34A.56.56,0,0,1,197,137h3.24a.52.52,0,0,1,.38.14.48.48,0,0,1,.14.34v5.8h6.72a.48.48,0,0,1,.48.48v3.16a.48.48,0,0,1-.48.48h-6.72v7.8a27.11,27.11,0,0,0,.12,3.32.94.94,0,0,0,.74.92,7.66,7.66,0,0,0,1.78.16,10.11,10.11,0,0,0,1.92-.2,16.14,16.14,0,0,0,2-.52c.13,0,.23-.06.28,0a.8.8,0,0,1,.16.38l.32,2.84A.49.49,0,0,1,207.84,162.57Z"/><path class="cls-3" d="M212.28,163a.48.48,0,0,1-.34-.14.52.52,0,0,1-.14-.38v-3.12a.48.48,0,0,1,.48-.48h2.52V146.45h-3.28a.48.48,0,0,1-.34-.14.52.52,0,0,1-.14-.38v-3a.48.48,0,0,1,.48-.48h6.56a.34.34,0,0,1,.36.36v3.4a8.65,8.65,0,0,1,.86-1.46,8.31,8.31,0,0,1,1-1.12,7.53,7.53,0,0,1,1.24-.92,7.35,7.35,0,0,1,2.06-.74,8.7,8.7,0,0,1,3.34.08,6.36,6.36,0,0,1,2.7,1.24c.13.13.19.25.16.36l-.08.32-1.32,2.72a.48.48,0,0,1-.26.32.52.52,0,0,1-.46-.08,6.19,6.19,0,0,0-2-.72,6.25,6.25,0,0,0-2.2,0,4.66,4.66,0,0,0-3,1.8,6.63,6.63,0,0,0-1.32,2.92,22.09,22.09,0,0,0-.24,3.48v4.48h4.16a.48.48,0,0,1,.48.48v3.12c0,.35-.16.52-.48.52Z"/><path class="cls-3" d="M246.28,160.21a7.94,7.94,0,0,1-2.74,2.54,7.8,7.8,0,0,1-7.08,0,7.64,7.64,0,0,1-2.6-2.34,10.65,10.65,0,0,1-1.58-3.46,17.22,17.22,0,0,1,0-8.4,10.45,10.45,0,0,1,1.58-3.44,7.81,7.81,0,0,1,2.58-2.32,7.92,7.92,0,0,1,7.1,0,7.68,7.68,0,0,1,2.6,2.32,10.45,10.45,0,0,1,1.58,3.44,16.22,16.22,0,0,1,.52,4.2,15.55,15.55,0,0,1-.52,4.12A11.6,11.6,0,0,1,246.28,160.21ZM240,145.89a2.66,2.66,0,0,0-1.76.6,4.58,4.58,0,0,0-1.18,1.58,9.64,9.64,0,0,0-.72,2.22,12.05,12.05,0,0,0,0,5,10.32,10.32,0,0,0,.72,2.22,4.48,4.48,0,0,0,1.18,1.6,2.85,2.85,0,0,0,3.5,0,4.41,4.41,0,0,0,1.2-1.6,10.32,10.32,0,0,0,.72-2.22,12.19,12.19,0,0,0,.26-2.5,12,12,0,0,0-.26-2.46,9.79,9.79,0,0,0-.72-2.2,4.68,4.68,0,0,0-1.2-1.6A2.63,2.63,0,0,0,240,145.89Z"/><path class="cls-3" d="M264.16,163a.47.47,0,0,1-.3-.1.36.36,0,0,1-.14-.3V161a5.36,5.36,0,0,1-1.94,2,5.43,5.43,0,0,1-2.74.68,6.2,6.2,0,0,1-4.94-2.28,9.8,9.8,0,0,1-1.94-6.52V143a.64.64,0,0,1,.14-.38.38.38,0,0,1,.3-.18H256a.38.38,0,0,1,.3.2.72.72,0,0,1,.14.4v11.16a7.91,7.91,0,0,0,.84,4.24,2.58,2.58,0,0,0,2.24,1.24,3.34,3.34,0,0,0,2.84-1.64,8.65,8.65,0,0,0,1.12-4.88V143a.64.64,0,0,1,.14-.38.45.45,0,0,1,.38-.18h3.32c.11,0,.21.07.3.22a.84.84,0,0,1,.14.42v14.76c0,.83,0,1.64,0,2.44s0,1.53,0,2.2c0,.35-.15.52-.44.52Z"/><path class="cls-3" d="M278.88,169a18.43,18.43,0,0,1-2.66-.2,10.31,10.31,0,0,1-2.62-.76,1.56,1.56,0,0,1-.42-.28.53.53,0,0,1-.1-.36l.16-3.32c0-.45.25-.57.68-.36a9.67,9.67,0,0,0,2.48,1,10.88,10.88,0,0,0,2.52.32,4.32,4.32,0,0,0,3.42-1.38,5.34,5.34,0,0,0,1.26-3.54,5.66,5.66,0,0,1-1.92,1.56,5.07,5.07,0,0,1-2.24.52,6.71,6.71,0,0,1-3-.64,7.7,7.7,0,0,1-2.46-2,9.57,9.57,0,0,1-1.76-3.26,12.41,12.41,0,0,1-.6-3.8,12.27,12.27,0,0,1,2.12-7.56,6.67,6.67,0,0,1,5.6-2.8,6.92,6.92,0,0,1,1.9.26,4.43,4.43,0,0,1,1.64.88,4.65,4.65,0,0,1,1.1,1.26l0-1.48a.62.62,0,0,1,0-.42c.05-.07.19-.1.4-.1h2.88c.27,0,.4.19.4.56v15.36q0,5-2.24,7.82A7.89,7.89,0,0,1,278.88,169Zm.88-23a3.06,3.06,0,0,0-2.82,1.86,9.79,9.79,0,0,0-1,4.58,10.22,10.22,0,0,0,.3,2.56,5.37,5.37,0,0,0,.84,1.88,5.12,5.12,0,0,0,1.14,1.14,2.31,2.31,0,0,0,1.36.42,2.8,2.8,0,0,0,1.54-.42,4.11,4.11,0,0,0,1.14-1.1,6.28,6.28,0,0,0,.82-1.88,9.4,9.4,0,0,0,.34-2.6,9.89,9.89,0,0,0-1-4.6A3,3,0,0,0,279.76,146Z"/><path class="cls-3" d="M308,153.93a.65.65,0,0,1-.14.46.52.52,0,0,1-.38.14h-11a6.33,6.33,0,0,0,1.1,3.62,3.9,3.9,0,0,0,3.42,1.5,8.49,8.49,0,0,0,2.54-.34,7.93,7.93,0,0,0,2.26-1.18c.21-.11.34-.09.38,0a1.65,1.65,0,0,1,.06.48v2.84a1,1,0,0,1-.12.54,1.47,1.47,0,0,1-.4.38,11.15,11.15,0,0,1-2.1.88,9.33,9.33,0,0,1-2.62.32q-4.56,0-6.8-2.92A12.38,12.38,0,0,1,292,153a16.49,16.49,0,0,1,.48-4,11.33,11.33,0,0,1,1.5-3.5,8.63,8.63,0,0,1,2.58-2.56,6.5,6.5,0,0,1,3.6-1,6.9,6.9,0,0,1,3.66.92,7.43,7.43,0,0,1,2.44,2.42,10.61,10.61,0,0,1,1.36,3.42,19.48,19.48,0,0,1,.42,4.16c0,.19,0,.39,0,.62S308,153.85,308,153.93ZM300,145.77a2.8,2.8,0,0,0-1.7.54,3.69,3.69,0,0,0-1.16,1.44,6.93,6.93,0,0,0-.56,1.64,7,7,0,0,0-.14,1.18h7.16a7,7,0,0,0-.14-1.18,6.93,6.93,0,0,0-.56-1.64,3.56,3.56,0,0,0-1.18-1.44A2.9,2.9,0,0,0,300,145.77Z"/></svg>