<svg id="Layer_1" data-name="Layer 1" xmlns="http://www.w3.org/2000/svg" viewBox="0 0 1965 2124"><defs><style>.cls-1{fill:#db3729;}.cls-2{fill:#fff;}</style></defs><rect class="cls-1" width="1965" height="1062"/><path class="cls-1" d="M772.37,1509.44c-30.28,77.42,206.32,208.71,169.93,343.42-2.73,10.09-13.63,50.42-49.31,70.67-30.72,17.44-73.78,16.57-101.25-5.43-25.17-20.17-33.67-55.2-38.74-76.12-4.58-18.9-7.63-44.63-10.56-44.4-1.1.09-1.64,3.76-1.76,4.53-2.66,16.07-46.76,103.81-112.7,103.3-35.39-.27-72.93-25.93-87.16-60.71C516.89,1786.24,565,1717,584,1689.76c36.53-52.56,70.54-64,104.77-131.39,14.74-29,22.11-43.53,17.61-56.18-19.66-55.2-233.42-82-359.22,33.53-80.65,74-130.69,211.67-82.76,304.45,35.57,68.84,112.08,87.85,298.47,118.7,400.7,66.33,604.92,98.6,794.15,54.37,143.58-33.56,307.66-71.91,351.3-195.72,28.9-82-6.87-167.73-69.55-318-52.67-126.28-82.69-195.28-153.2-217.46-66.76-21-163,2.1-208.67,80.64-45.38,78.06-23.73,181.49,29.06,225.62,12.79,10.69,43.74,36.57,83.64,36.25,18.85-.16,37.51-4.34,68.68,4.53,15.9,4.53,21.49,9.51,25.53,15.4,10.13,14.79,10,35.74,0,49.84-20.64,29.09-68.57,21.65-77.48,10.87-.63-.76-3.26-4.19-4.4-3.62-1.53.75,1,8,1.76,13.59,2,14.77-6.85,27.6-9.69,31.71-8.75,12.68-25.42,24.33-44,22.65-29.57-2.65-43-37.09-44-39.86-8.2-22,1.25-33.41-.88-65.24,0,0-1.64-24.57-16.73-60.71C1254.06,1521.62,811.73,1408.82,772.37,1509.44Z"/><path class="cls-2" d="M1198.45,745.48c262.07,49.31,279.66,110.36,356.63,80.85,115-44.07,188.57-223.47,154.53-364.24C1666.3,283,1459.36,210.43,1294.35,152.56c-90.51-31.74-502-176-819.6,36-116.79,78-259.88,230.17-222,321.84C280.6,577.64,394.35,584.69,409,585.6c116.68,7.23,316.82-125.17,304.51-239.21-4.45-41.22-35.82-72.48-18.3-98.88,9.18-13.83,29.35-22.65,45.7-18.49,32.48,8.27,39.25,65,49.95,63.26,12.13-2-3.86-73.67,28.45-94.28,14.79-9.43,38.24-7.24,51.55,4.19,31.3,26.88,3.28,102.2,13.05,105.13,11.33,3.4,35.28-101.75,85.28-107,15.43-1.61,32.26,6.4,41.22,18.62,29.33,40-27.83,122.14-16.72,129,10.82,6.67,56.9-76.21,97.43-67.46,17.83,3.85,32.63,25,33.73,43.42,1,16.8-9.69,26.93-47.67,84.36-15.6,23.6-18.86,29.54-16.31,34.28,8.55,15.92,63.82-16.81,97.17,6.95,24.62,17.55,33.76,63.35,17,83.54-22.89,27.52-77.14-12.83-121.29,15.45-37.45,24-53.31,88.27-34,129.54C1041,723.67,1102,727.32,1198.45,745.48Z"/></svg>