<svg id="Layer_1" data-name="Layer 1" xmlns="http://www.w3.org/2000/svg" viewBox="0 0 865 1675"><defs><style>.cls-1{fill:#db3729;}</style></defs><path class="cls-1" d="M102.24,1083c-56,297.66-125.35,317.64-91.83,405.06,50.05,130.56,253.82,214.18,413.7,175.51,203.4-49.19,285.83-284.23,351.56-471.65,36.05-102.79,200-570.15-40.88-930.89C646.23,128.42,473.37-34.1,369.25,9c-76.38,31.59-84.39,160.79-85.42,177.47C275.62,319,426,546.27,555.52,532.3c46.82-5.06,82.33-40.69,112.31-20.79,15.7,10.42,25.73,33.33,21,51.9C679.44,600.3,614.94,608,617,620.15c2.31,13.77,83.68-4.39,107.08,32.31,10.71,16.8,8.22,43.44-4.75,58.55-30.54,35.55-116.08,3.72-119.41,14.83C596,738.7,715.46,765.9,721.4,822.7c1.83,17.52-7.26,36.64-21.14,46.81-45.42,33.31-138.74-31.61-146.51-19-7.57,12.29,86.56,64.63,76.62,110.66C626,981.43,602,998.24,581.05,999.49c-19.08,1.14-30.59-11-95.82-54.14-26.8-17.72-33.55-21.42-38.93-18.53-18.08,9.72,19.1,72.49-7.89,110.37-19.93,28-72,38.34-94.88,19.26-31.26-26,14.56-87.61-17.55-137.75C298.73,876.15,225.72,858.14,178.84,880,127,904.2,122.86,973.48,102.24,1083Z"/></svg>