<svg id="Layer_1" data-name="Layer 1" xmlns="http://www.w3.org/2000/svg" viewBox="0 0 460 350"><defs><style>.cls-1{fill:#db3729;}.cls-2{opacity:0.62;}.cls-3{fill:#ffc1b4;}.cls-4{fill:#fff;}</style></defs><circle class="cls-1" cx="230" cy="175" r="174"/><g class="cls-2"><path class="cls-3" d="M198.29,253.13c-.49.71-1.59,4.53,1.54,4.77,5.79.45,8.21-3.93,11.29-5.61a30.7,30.7,0,0,1,4.62-2,33.16,33.16,0,0,1,19,.28c8,2.57,2.92,12.22.51,15.44-5.64,7.58-8.62,7.81-14.88,15.72-.94,1.19-8.82,15.32-4.11,21.34,1.54,2,6.45,2.45,8.21.28,2.06-2.53-.24-4.94,1.54-9.83.52-1.4,0-3.65,7.7-12.07,10.3-11.26,9.76-10.1,14.37-15.44,3.8-4.38,7.05-12.21-.51-18-7.87-6-23-5.64-23.61-5.62C210.53,242.89,201.43,248.58,198.29,253.13Z"/><path class="cls-3" d="M223.34,309.47c-3.57-.93-7.46.65-8.54,2.85-.82,1.67,0,3.7,2.14,4.75,3.12,1.51,8.38.63,10-1.9C228.19,313.1,226.75,310.36,223.34,309.47Z"/></g><path class="cls-4" d="M206.06,234.9c-.49,1-1.59,6.23,1.54,6.56,5.79.62,8.22-5.4,11.3-7.72a27.33,27.33,0,0,1,4.62-2.7,24.52,24.52,0,0,1,19,.39c8,3.53,2.91,16.79.51,21.22-5.65,10.42-8.62,10.74-14.89,21.61-.94,1.64-8.82,21.06-4.1,29.33,1.54,2.7,6.44,3.38,8.21.39,2-3.48-.25-6.79,1.54-13.51.51-1.93,0-5,7.7-16.59,10.29-15.48,9.75-13.9,14.37-21.23,3.79-6,7-16.79-.51-24.7-7.87-8.22-23-7.74-23.61-7.71C218.3,220.82,209.21,228.65,206.06,234.9Z"/><path class="cls-4" d="M231.12,312.35a6.88,6.88,0,0,0-8.54,3.92,5.65,5.65,0,0,0,2.13,6.53c3.12,2.08,8.39.87,10-2.62A5.91,5.91,0,0,0,231.12,312.35Z"/><path class="cls-4" d="M77,152.39v10.12a.46.46,0,0,1-.52.52h-3.4c-.32,0-.48-.17-.48-.52V135.75a.49.49,0,0,1,.14-.34.48.48,0,0,1,.34-.14H79a10.6,10.6,0,0,1,7,2.16,7.78,7.78,0,0,1,2.58,6.32,8.35,8.35,0,0,1-.74,3.7,8.22,8.22,0,0,1-2.08,2.64,9,9,0,0,1-3.16,1.72,12.93,12.93,0,0,1-4,.58Zm0-12.92v8.76h1.72a6,6,0,0,0,3.94-1.16,4.07,4.07,0,0,0,1.42-3.36,3.91,3.91,0,0,0-1.24-3.26,5.1,5.1,0,0,0-3.24-1Z"/><path class="cls-4" d="M106.28,160.23a7.94,7.94,0,0,1-2.74,2.54,7.8,7.8,0,0,1-7.08,0,7.64,7.64,0,0,1-2.6-2.34A10.65,10.65,0,0,1,92.28,157a17.22,17.22,0,0,1,0-8.4,10.54,10.54,0,0,1,1.58-3.44,7.92,7.92,0,0,1,2.58-2.32,7.92,7.92,0,0,1,7.1,0,7.79,7.79,0,0,1,2.6,2.32,10.54,10.54,0,0,1,1.58,3.44,16.22,16.22,0,0,1,.52,4.2,15.55,15.55,0,0,1-.52,4.12A11.6,11.6,0,0,1,106.28,160.23ZM100,145.91a2.66,2.66,0,0,0-1.76.6,4.58,4.58,0,0,0-1.18,1.58,10,10,0,0,0-.72,2.22,12.37,12.37,0,0,0-.26,2.48,12.12,12.12,0,0,0,.26,2.5,10,10,0,0,0,.72,2.22,4.48,4.48,0,0,0,1.18,1.6,2.85,2.85,0,0,0,3.5,0,4.41,4.41,0,0,0,1.2-1.6,10,10,0,0,0,.72-2.22,12,12,0,0,0,0-5,10,10,0,0,0-.72-2.2,4.78,4.78,0,0,0-1.2-1.6A2.63,2.63,0,0,0,100,145.91Z"/><path class="cls-4" d="M112.28,163a.48.48,0,0,1-.34-.14.52.52,0,0,1-.14-.38v-3.12a.49.49,0,0,1,.14-.34.48.48,0,0,1,.34-.14h2.52V146.47h-3.28a.44.44,0,0,1-.34-.14A.52.52,0,0,1,111,146v-3a.49.49,0,0,1,.14-.34.48.48,0,0,1,.34-.14h6.56a.38.38,0,0,1,.26.1.35.35,0,0,1,.1.26v3.4a9.07,9.07,0,0,1,.86-1.46,9,9,0,0,1,1-1.12,7.53,7.53,0,0,1,1.24-.92,7.68,7.68,0,0,1,2.06-.74,8.9,8.9,0,0,1,3.34.08,6.48,6.48,0,0,1,2.7,1.24c.13.14.19.26.16.36s-.05.22-.08.32l-1.32,2.72a.48.48,0,0,1-.26.32.49.49,0,0,1-.46-.08,6.67,6.67,0,0,0-2-.72,6.25,6.25,0,0,0-2.2,0,4.66,4.66,0,0,0-3,1.8,6.68,6.68,0,0,0-1.32,2.92,22.09,22.09,0,0,0-.24,3.48v4.48h4.16a.48.48,0,0,1,.34.14.49.49,0,0,1,.14.34v3.12c0,.35-.16.52-.48.52Z"/><path class="cls-4" d="M147.84,162.59a16.93,16.93,0,0,1-3,.76,13,13,0,0,1-2.54.2,6.71,6.71,0,0,1-3.32-.7,4.18,4.18,0,0,1-1.72-1.62,6.22,6.22,0,0,1-.68-2.44c-.08-.93-.12-2.2-.12-3.8v-7.56h-4.4a.44.44,0,0,1-.34-.14.46.46,0,0,1-.14-.34v-3.16a.49.49,0,0,1,.14-.34.48.48,0,0,1,.34-.14h4.4v-5.8a.44.44,0,0,1,.16-.34A.56.56,0,0,1,137,137h3.24a.52.52,0,0,1,.38.14.49.49,0,0,1,.14.34v5.8h6.72a.48.48,0,0,1,.34.14.49.49,0,0,1,.14.34V147a.46.46,0,0,1-.14.34.44.44,0,0,1-.34.14h-6.72v7.8a27,27,0,0,0,.12,3.32.93.93,0,0,0,.74.92,7.66,7.66,0,0,0,1.78.16,9.35,9.35,0,0,0,1.92-.2,14.49,14.49,0,0,0,2-.52c.13,0,.23-.06.28,0a.8.8,0,0,1,.16.38l.32,2.84A.49.49,0,0,1,147.84,162.59Z"/><path class="cls-4" d="M167.08,137a8,8,0,0,0-1.4-.5,7.55,7.55,0,0,0-1.84-.22,2.19,2.19,0,0,0-1.62.48,2.49,2.49,0,0,0-.7,1.28c-.05.32-.1.7-.14,1.12s-.06.92-.06,1.48v2.76h6.16a.42.42,0,0,1,.48.48V147a.46.46,0,0,1-.14.34.44.44,0,0,1-.34.14h-6.16v15.08a.42.42,0,0,1-.48.48h-3.28a.42.42,0,0,1-.48-.48V147.47H152.6a.44.44,0,0,1-.34-.14.46.46,0,0,1-.14-.34v-3.12a.49.49,0,0,1,.14-.34.48.48,0,0,1,.34-.14H157v-2.48a21.64,21.64,0,0,1,.26-3.48,7.74,7.74,0,0,1,1-2.76A5.06,5.06,0,0,1,160.1,133a6.93,6.93,0,0,1,3.34-.66,11.39,11.39,0,0,1,2.06.2,7.83,7.83,0,0,1,1.82.56.59.59,0,0,1,.28.56l-.16,2.72Q167.44,137.08,167.08,137Z"/><path class="cls-4" d="M186.28,160.23a7.94,7.94,0,0,1-2.74,2.54,7.8,7.8,0,0,1-7.08,0,7.64,7.64,0,0,1-2.6-2.34,10.65,10.65,0,0,1-1.58-3.46,17.22,17.22,0,0,1,0-8.4,10.54,10.54,0,0,1,1.58-3.44,7.92,7.92,0,0,1,2.58-2.32,7.92,7.92,0,0,1,7.1,0,7.79,7.79,0,0,1,2.6,2.32,10.54,10.54,0,0,1,1.58,3.44,16.22,16.22,0,0,1,.52,4.2,15.55,15.55,0,0,1-.52,4.12A11.6,11.6,0,0,1,186.28,160.23ZM180,145.91a2.66,2.66,0,0,0-1.76.6,4.58,4.58,0,0,0-1.18,1.58,10,10,0,0,0-.72,2.22,12.37,12.37,0,0,0-.26,2.48,12.12,12.12,0,0,0,.26,2.5,10,10,0,0,0,.72,2.22,4.48,4.48,0,0,0,1.18,1.6,2.85,2.85,0,0,0,3.5,0,4.41,4.41,0,0,0,1.2-1.6,10,10,0,0,0,.72-2.22,12,12,0,0,0,0-5,10,10,0,0,0-.72-2.2,4.78,4.78,0,0,0-1.2-1.6A2.63,2.63,0,0,0,180,145.91Z"/><path class="cls-4" d="M192.8,163a.48.48,0,0,1-.34-.14.52.52,0,0,1-.14-.38v-3.12a.49.49,0,0,1,.14-.34.48.48,0,0,1,.34-.14h5.44v-21.8h-4.16a.44.44,0,0,1-.34-.14.52.52,0,0,1-.14-.38v-3.12a.49.49,0,0,1,.14-.34.48.48,0,0,1,.34-.14h8a.48.48,0,0,1,.34.14.49.49,0,0,1,.14.34v25.44h4.92a.48.48,0,0,1,.34.14.49.49,0,0,1,.14.34v3.12c0,.35-.16.52-.48.52Z"/><path class="cls-4" d="M212.68,163a.48.48,0,0,1-.34-.14.52.52,0,0,1-.14-.38v-3.12a.49.49,0,0,1,.14-.34.48.48,0,0,1,.34-.14h5.44V146.59H213.4a.44.44,0,0,1-.34-.14.52.52,0,0,1-.14-.38V143a.49.49,0,0,1,.14-.34.48.48,0,0,1,.34-.14H222a.48.48,0,0,1,.34.14.49.49,0,0,1,.14.34v16h4.92a.48.48,0,0,1,.34.14.49.49,0,0,1,.14.34v3.12c0,.35-.16.52-.48.52Zm7-23.72a2.93,2.93,0,0,1-2.16-.88,2.86,2.86,0,0,1-.88-2.12,3,3,0,0,1,.88-2.22,2.91,2.91,0,0,1,2.16-.9,3.07,3.07,0,0,1,3.12,3.12,2.84,2.84,0,0,1-.9,2.12A3,3,0,0,1,219.72,139.31Z"/><path class="cls-4" d="M246.28,160.23a7.94,7.94,0,0,1-2.74,2.54,7.8,7.8,0,0,1-7.08,0,7.64,7.64,0,0,1-2.6-2.34,10.65,10.65,0,0,1-1.58-3.46,17.22,17.22,0,0,1,0-8.4,10.54,10.54,0,0,1,1.58-3.44,7.92,7.92,0,0,1,2.58-2.32,7.92,7.92,0,0,1,7.1,0,7.79,7.79,0,0,1,2.6,2.32,10.54,10.54,0,0,1,1.58,3.44,16.22,16.22,0,0,1,.52,4.2,15.55,15.55,0,0,1-.52,4.12A11.6,11.6,0,0,1,246.28,160.23ZM240,145.91a2.66,2.66,0,0,0-1.76.6,4.58,4.58,0,0,0-1.18,1.58,10,10,0,0,0-.72,2.22,12.37,12.37,0,0,0-.26,2.48,12.12,12.12,0,0,0,.26,2.5,10,10,0,0,0,.72,2.22,4.48,4.48,0,0,0,1.18,1.6,2.85,2.85,0,0,0,3.5,0,4.41,4.41,0,0,0,1.2-1.6,10,10,0,0,0,.72-2.22,12,12,0,0,0,0-5,10,10,0,0,0-.72-2.2,4.78,4.78,0,0,0-1.2-1.6A2.63,2.63,0,0,0,240,145.91Z"/><path class="cls-4" d="M268,154a.63.63,0,0,1-.14.46.48.48,0,0,1-.38.14h-11a6.31,6.31,0,0,0,1.1,3.62,3.9,3.9,0,0,0,3.42,1.5,8.49,8.49,0,0,0,2.54-.34,7.69,7.69,0,0,0,2.26-1.18c.21-.1.34-.09.38,0a1.75,1.75,0,0,1,.06.48v2.84a1,1,0,0,1-.12.54,1.47,1.47,0,0,1-.4.38,11.15,11.15,0,0,1-2.1.88,9.33,9.33,0,0,1-2.62.32q-4.56,0-6.8-2.92A12.36,12.36,0,0,1,252,153a16.55,16.55,0,0,1,.48-4,11.33,11.33,0,0,1,1.5-3.5,8.63,8.63,0,0,1,2.58-2.56,6.58,6.58,0,0,1,3.6-1,6.9,6.9,0,0,1,3.66.92,7.52,7.52,0,0,1,2.44,2.42,10.61,10.61,0,0,1,1.36,3.42,19.48,19.48,0,0,1,.42,4.16c0,.19,0,.4,0,.62S268,153.87,268,154ZM260,145.79a2.8,2.8,0,0,0-1.7.54,3.69,3.69,0,0,0-1.16,1.44,6.93,6.93,0,0,0-.56,1.64,7.16,7.16,0,0,0-.14,1.18h7.16a7.16,7.16,0,0,0-.14-1.18,6.93,6.93,0,0,0-.56-1.64,3.56,3.56,0,0,0-1.18-1.44A2.9,2.9,0,0,0,260,145.79Z"/><path class="cls-4" d="M285.2,163a1.34,1.34,0,0,1-.62-.1,1.23,1.23,0,0,1-.38-.42L279,154l-2.32,2.69v5.89c0,.32-.17.48-.52.48h-3.24a.48.48,0,0,1-.34-.14.46.46,0,0,1-.14-.34V133.47a.49.49,0,0,1,.14-.34.48.48,0,0,1,.34-.14h3.24a.52.52,0,0,1,.38.14.49.49,0,0,1,.14.34v17.31l6.64-7.95a.89.89,0,0,1,.64-.36H288c.51,0,.59.19.24.56l-6.56,7.75,7.44,11.73c.27.35.17.52-.28.52Z"/><path class="cls-4" d="M304.4,162.19a9.12,9.12,0,0,1-5.12,1.44c-.53,0-1.09,0-1.66-.08s-1.11-.11-1.6-.18-1-.16-1.48-.28a6.72,6.72,0,0,1-1.1-.34.72.72,0,0,1-.34-.2.46.46,0,0,1-.14-.44l.24-2.68a1,1,0,0,1,.12-.44c.05-.05.23,0,.52,0a18.59,18.59,0,0,0,2.78.58,19.45,19.45,0,0,0,2.5.18,4.44,4.44,0,0,0,2.62-.62,2,2,0,0,0,.86-1.7,2.11,2.11,0,0,0-.44-1.18,5.13,5.13,0,0,0-1.48-1.26l-2.24-1.3q-1.15-.66-2.28-1.26a6.19,6.19,0,0,1-2.14-2,4.48,4.48,0,0,1-.86-2.48,5.81,5.81,0,0,1,.6-2.66,6.05,6.05,0,0,1,1.6-2,6.4,6.4,0,0,1,2.3-1.16,10.24,10.24,0,0,1,2.74-.36c.51,0,1,0,1.58.08s1.08.13,1.6.22,1,.2,1.4.32a4,4,0,0,1,.94.38c.13.06.21.12.22.18a.83.83,0,0,1,0,.3l-.24,2.64c0,.27-.11.44-.24.5a.65.65,0,0,1-.56-.06c-.51-.18-1.08-.36-1.72-.52a13.62,13.62,0,0,0-1.46-.22q-.7-.06-1.26-.06a3.51,3.51,0,0,0-2.32.6,1.76,1.76,0,0,0-.68,1.32,1.91,1.91,0,0,0,.76,1.38,8.81,8.81,0,0,0,1.92,1.3c.85.43,1.63.85,2.32,1.26s1.21.76,1.56,1a7.55,7.55,0,0,1,2.16,2.18,4.67,4.67,0,0,1,.72,2.46A6,6,0,0,1,304.4,162.19Z"/><path class="cls-4" d="M324.28,163a.75.75,0,0,1-.34,0s-.06-.12-.06-.28v-1.84a6.19,6.19,0,0,1-2.4,2.1,6.56,6.56,0,0,1-2.92.7,8,8,0,0,1-2.46-.42,5.83,5.83,0,0,1-3.68-3.26,6.76,6.76,0,0,1-.54-2.8,7,7,0,0,1,.7-3.14,6.15,6.15,0,0,1,2.14-2.38,10.4,10.4,0,0,1,3.5-1.42,25.25,25.25,0,0,1,5.26-.46,6.33,6.33,0,0,0-.14-1.34,3.68,3.68,0,0,0-.5-1.18,3,3,0,0,0-1-.94,3.24,3.24,0,0,0-1.62-.38,8.1,8.1,0,0,0-2.66.48,11.5,11.5,0,0,0-2.58,1.28c-.4.27-.67.39-.82.36s-.22-.17-.22-.44v-3.12s0-.15,0-.3a.36.36,0,0,1,.14-.34,2.15,2.15,0,0,1,.52-.36,13.7,13.7,0,0,1,2.64-1.12,10,10,0,0,1,2.92-.44q3.84,0,5.74,1.94a7.66,7.66,0,0,1,1.9,5.58v8.8c0,.72,0,1.46,0,2.2a16.5,16.5,0,0,0,.14,2c0,.37-.12.56-.44.56Zm-8.12-6.12A2.56,2.56,0,0,0,317,159a2.75,2.75,0,0,0,1.8.7,4.3,4.3,0,0,0,3.48-1.66,6.1,6.1,0,0,0,1.36-4v-.44q-4.27,0-5.88.86A2.69,2.69,0,0,0,316.16,156.91Z"/><path class="cls-4" d="M345.24,163c-.08,0-.15-.06-.2-.18a1,1,0,0,1-.08-.38V150.19a13.12,13.12,0,0,0-.28-3.1c-.19-.73-.49-1.1-.92-1.1a.9.9,0,0,0-.72.44,3.76,3.76,0,0,0-.5,1.44,11.9,11.9,0,0,0-.18,2.1v12.14c0,.35-.08.52-.24.52h-3.2c-.08,0-.15-.06-.2-.18a1,1,0,0,1-.08-.38V150.19c0-2.8-.45-4.2-1.28-4.2-.48,0-.82.46-1,1.36a18.14,18.14,0,0,0-.3,3.72v11.44c0,.35-.09.52-.28.52h-3.32c-.05,0-.11-.06-.16-.18a1,1,0,0,1-.08-.38V148.11c0-1,0-2,0-2.92s0-1.66-.06-2.2c0-.34.08-.52.32-.52h3c.16,0,.24.11.24.32l0,1.62a3.34,3.34,0,0,1,.92-1.77A2.07,2.07,0,0,1,338,142a2.55,2.55,0,0,1,1.94,1,5,5,0,0,1,1.06,2.84,6.54,6.54,0,0,1,1.44-2.86,2.9,2.9,0,0,1,2.12-.94,3.56,3.56,0,0,1,3.06,2,11,11,0,0,1,1.22,5.66v12.84a.83.83,0,0,1-.08.36c-.05.11-.12.16-.2.16Z"/><path class="cls-4" d="M368,154a.63.63,0,0,1-.14.46.48.48,0,0,1-.38.14h-11a6.31,6.31,0,0,0,1.1,3.62,3.9,3.9,0,0,0,3.42,1.5,8.49,8.49,0,0,0,2.54-.34,7.69,7.69,0,0,0,2.26-1.18c.21-.1.34-.09.38,0a1.75,1.75,0,0,1,.06.48v2.84a1,1,0,0,1-.12.54,1.47,1.47,0,0,1-.4.38,11.15,11.15,0,0,1-2.1.88,9.33,9.33,0,0,1-2.62.32q-4.56,0-6.8-2.92A12.36,12.36,0,0,1,352,153a16.55,16.55,0,0,1,.48-4,11.33,11.33,0,0,1,1.5-3.5,8.63,8.63,0,0,1,2.58-2.56,6.58,6.58,0,0,1,3.6-1,6.9,6.9,0,0,1,3.66.92,7.52,7.52,0,0,1,2.44,2.42,10.61,10.61,0,0,1,1.36,3.42,19.48,19.48,0,0,1,.42,4.16c0,.19,0,.4,0,.62S368,153.87,368,154ZM360,145.79a2.8,2.8,0,0,0-1.7.54,3.69,3.69,0,0,0-1.16,1.44,6.93,6.93,0,0,0-.56,1.64,7.16,7.16,0,0,0-.14,1.18h7.16a7.16,7.16,0,0,0-.14-1.18,6.93,6.93,0,0,0-.56-1.64,3.56,3.56,0,0,0-1.18-1.44A2.9,2.9,0,0,0,360,145.79Z"/><path class="cls-4" d="M384,163a.42.42,0,0,1-.34-.18.64.64,0,0,1-.14-.38V151.31a8.78,8.78,0,0,0-.74-4.16,2.4,2.4,0,0,0-2.22-1.28,3.49,3.49,0,0,0-2.86,1.46,6.75,6.75,0,0,0-1.14,4.22v11c0,.35-.16.52-.48.52h-3.28a.42.42,0,0,1-.34-.18.64.64,0,0,1-.14-.38V148.11c0-1,0-2,0-2.92s0-1.66-.1-2.2c-.05-.34.13-.52.56-.52h3.12q.43,0,.36.33l0,1.45a5.73,5.73,0,0,1,1.9-1.65,5.14,5.14,0,0,1,2.58-.69,6.77,6.77,0,0,1,5,2.14q2.1,2.14,2.1,6.66v11.8c0,.35-.16.52-.48.52Z"/></svg>