<svg id="Layer_1" data-name="Layer 1" xmlns="http://www.w3.org/2000/svg" viewBox="0 0 460 350"><defs><style>.cls-1{fill:#db3729;}.cls-2{fill:#ffc1b4;}.cls-3{fill:#fff;}</style></defs><circle class="cls-1" cx="230" cy="175" r="174"/><path class="cls-2" d="M222.41,279.16a95.57,95.57,0,0,0,6.13,15.22c6.53,12.94,14.34,21.26,20.27,27.48,4.06,4.26,4.55,4.41,4.76,4.32,1.49-.64-5.62-15.48-14.95-28.41A139.23,139.23,0,0,0,222.41,279.16Z"/><path class="cls-2" d="M202.68,250.29c-11.52,4.79-18.53,15.4-16.33,25.6,3,14,22,21.51,36.86,19.46,1.58-.22,12.7-1.92,19.27-10.24,6.76-8.58,5.81-20.53-2.52-28.67C231,247.62,215.19,245.1,202.68,250.29Z"/><path class="cls-1" d="M194.72,264c-1.11-.13-3.8,4.26-3.35,8.87.73,7.5,9.5,12.85,10.47,12.29.7-.4-2.89-3.62-5-10.58C194.86,268.16,195.78,264.06,194.72,264Z"/><path class="cls-3" d="M229.6,273.76a134.16,134.16,0,0,0,6.12,18.68c6.54,15.88,14.35,26.09,20.27,33.72,4.06,5.23,4.55,5.41,4.76,5.3,1.5-.79-5.61-19-14.95-34.86A164,164,0,0,0,229.6,273.76Z"/><path class="cls-3" d="M209.87,238.33c-11.52,5.88-18.53,18.89-16.34,31.42,3,17.13,22,26.4,36.86,23.87,1.59-.27,12.71-2.35,19.27-12.56,6.77-10.53,5.81-25.19-2.51-35.19A30.76,30.76,0,0,0,209.87,238.33Z"/><path class="cls-1" d="M201.91,255.09c-1.11-.15-3.8,5.22-3.35,10.89.73,9.21,9.5,15.77,10.47,15.08.69-.5-2.89-4.45-5-13C202.05,260.25,203,255.23,201.91,255.09Z"/><path class="cls-3" d="M107.08,162.05a6.25,6.25,0,0,1-1.18.62,13,13,0,0,1-1.48.46c-.55.13-1.07.23-1.58.3a12.11,12.11,0,0,1-1.4.1,7.91,7.91,0,0,1-3.9-1,10.38,10.38,0,0,1-3.3-3A15.47,15.47,0,0,1,92,154.83a19.93,19.93,0,0,1-.78-5.7,19.28,19.28,0,0,1,.74-5.36,16.28,16.28,0,0,1,2.14-4.64,10.81,10.81,0,0,1,3.26-3.24,7.67,7.67,0,0,1,4.06-1.2,16.06,16.06,0,0,1,2.72.24,10.48,10.48,0,0,1,2.56.76c.19.08.3.16.34.26a.44.44,0,0,1,0,.3l-.32,3.32a.84.84,0,0,1-.14.4c-.07.08-.19.06-.38,0a11.57,11.57,0,0,0-4.8-1,3.76,3.76,0,0,0-2.22.84,6.65,6.65,0,0,0-1.92,2.34,14.53,14.53,0,0,0-1.22,3.28,15.64,15.64,0,0,0-.44,3.74,17.22,17.22,0,0,0,.44,4,13.45,13.45,0,0,0,1.24,3.3,7.11,7.11,0,0,0,1.74,2.2,3.76,3.76,0,0,0,2.38.74,5.85,5.85,0,0,0,1.3-.16c.44-.11.67-.27.7-.48v-6.88H99.2a.26.26,0,0,1-.24-.14.74.74,0,0,1-.08-.34v-3.16a.7.7,0,0,1,.1-.4.29.29,0,0,1,.26-.16H107a.5.5,0,0,1,.48.2,1.75,1.75,0,0,1,.12.8v12a2.08,2.08,0,0,1-.16.92A2.37,2.37,0,0,1,107.08,162.05Z"/><path class="cls-3" d="M112.28,163a.48.48,0,0,1-.34-.14.54.54,0,0,1-.14-.38v-3.12a.46.46,0,0,1,.14-.34.44.44,0,0,1,.34-.14h2.52V146.41h-3.28a.48.48,0,0,1-.34-.14.54.54,0,0,1-.14-.38v-3a.46.46,0,0,1,.14-.34.44.44,0,0,1,.34-.14h6.56a.34.34,0,0,1,.26.1.33.33,0,0,1,.1.26v3.4a8.65,8.65,0,0,1,.86-1.46,7.74,7.74,0,0,1,1-1.12,7,7,0,0,1,1.24-.92,7.35,7.35,0,0,1,2.06-.74,8.7,8.7,0,0,1,3.34.08,6.36,6.36,0,0,1,2.7,1.24c.13.13.19.25.16.36s-.05.21-.08.32l-1.32,2.72a.5.5,0,0,1-.26.32.55.55,0,0,1-.46-.08,6.19,6.19,0,0,0-2-.72,5.81,5.81,0,0,0-2.2,0,4.66,4.66,0,0,0-3,1.8,6.63,6.63,0,0,0-1.32,2.92,21.91,21.91,0,0,0-.24,3.48v4.48h4.16a.44.44,0,0,1,.34.14.46.46,0,0,1,.14.34v3.12c0,.34-.16.52-.48.52Z"/><path class="cls-3" d="M144.16,163a.48.48,0,0,1-.3-.11.34.34,0,0,1-.14-.3v-1.64a5.26,5.26,0,0,1-1.94,2,5.34,5.34,0,0,1-2.74.69,6.2,6.2,0,0,1-4.94-2.28,9.81,9.81,0,0,1-1.94-6.52V143a.62.62,0,0,1,.14-.38.38.38,0,0,1,.3-.18H136a.36.36,0,0,1,.3.2.69.69,0,0,1,.14.4v11.16a7.91,7.91,0,0,0,.84,4.24,2.6,2.6,0,0,0,2.24,1.24,3.34,3.34,0,0,0,2.84-1.64,8.67,8.67,0,0,0,1.12-4.88V143a.62.62,0,0,1,.14-.38.45.45,0,0,1,.38-.18h3.32c.11,0,.21.07.3.22a.78.78,0,0,1,.14.42v14.76c0,.82,0,1.64,0,2.44s0,1.53,0,2.2c0,.34-.15.52-.44.52Z"/><path class="cls-3" d="M164,163a.42.42,0,0,1-.34-.18.64.64,0,0,1-.14-.38V151.25a8.76,8.76,0,0,0-.74-4.16,2.39,2.39,0,0,0-2.22-1.28,3.47,3.47,0,0,0-2.86,1.46,6.73,6.73,0,0,0-1.14,4.22v11c0,.34-.16.52-.48.52h-3.28a.42.42,0,0,1-.34-.18.64.64,0,0,1-.14-.38V148.05c0-1,0-2,0-2.92s-.05-1.67-.1-2.2c-.05-.35.13-.52.56-.52h3.12c.29,0,.41.1.36.32l0,1.46a5.65,5.65,0,0,1,1.9-1.66,5.13,5.13,0,0,1,2.58-.68,6.73,6.73,0,0,1,5,2.14q2.1,2.13,2.1,6.66v11.8c0,.34-.16.52-.48.52Z"/><path class="cls-3" d="M178.72,163.45a6.42,6.42,0,0,1-3.22-.78,7.15,7.15,0,0,1-2.36-2.2,10.89,10.89,0,0,1-1.5-3.48,17.76,17.76,0,0,1-.52-4.38,16,16,0,0,1,.54-3.9,12.25,12.25,0,0,1,1.52-3.66,7,7,0,0,1,2.36-2.34,6.07,6.07,0,0,1,3.18-.82,5.23,5.23,0,0,1,2.5.62,5.84,5.84,0,0,1,2.06,1.86V133.21a.64.64,0,0,1,.08-.4c0-.06.16-.08.32-.08h3.44c.29,0,.44.16.44.48v29.16c0,.4-.19.6-.56.6h-3.2c-.35,0-.52-.2-.52-.6v-1.56a5,5,0,0,1-2,1.92A5.24,5.24,0,0,1,178.72,163.45Zm.92-17.48a3.22,3.22,0,0,0-3,2,11.08,11.08,0,0,0,0,9.46,3.26,3.26,0,0,0,2.92,2,2.54,2.54,0,0,0,1.48-.52,4.55,4.55,0,0,0,1.26-1.48,8.16,8.16,0,0,0,.82-2.3,12.11,12.11,0,0,0,.28-2.5,9.9,9.9,0,0,0-1-4.74A3.11,3.11,0,0,0,179.64,146Z"/><path class="cls-3" d="M192.8,163a.48.48,0,0,1-.34-.14.54.54,0,0,1-.14-.38v-3.12a.46.46,0,0,1,.14-.34.44.44,0,0,1,.34-.14h5.44v-21.8h-4.16a.48.48,0,0,1-.34-.14.54.54,0,0,1-.14-.38v-3.12a.46.46,0,0,1,.14-.34.44.44,0,0,1,.34-.14h8a.44.44,0,0,1,.34.14.46.46,0,0,1,.14.34v25.44h4.92a.44.44,0,0,1,.34.14.46.46,0,0,1,.14.34v3.12c0,.34-.16.52-.48.52Z"/><path class="cls-3" d="M245.2,152.25v1.44H231.68a6.64,6.64,0,0,0,1.26,4,4,4,0,0,0,3.34,1.48,5.2,5.2,0,0,0,3.32-.86,4.27,4.27,0,0,0,1.36-2.62h4.24a9.53,9.53,0,0,1-2.84,5.6,8.78,8.78,0,0,1-6,1.92,9.11,9.11,0,0,1-4-.86,8,8,0,0,1-3.08-2.66,6.82,6.82,0,0,1-3.06,2.66,11.27,11.27,0,0,1-4.58.86,7.71,7.71,0,0,1-5-1.54,6.66,6.66,0,0,1-1.34-7.4,5.6,5.6,0,0,1,1.78-2,11.18,11.18,0,0,1,3.06-1.48,32.72,32.72,0,0,1,4.42-1.1,5.32,5.32,0,0,0,1.66-.64,1.53,1.53,0,0,0,.82-1.4,2.12,2.12,0,0,0-.86-1.9,4.27,4.27,0,0,0-2.42-.58,4.54,4.54,0,0,0-2.72.74,2.71,2.71,0,0,0-1,2.38h-4.48a7.13,7.13,0,0,1,.64-3.16A6.13,6.13,0,0,1,218,143a7.41,7.41,0,0,1,2.64-1.3,12.42,12.42,0,0,1,3.32-.42,12.25,12.25,0,0,1,3.7.52,5.15,5.15,0,0,1,2.66,1.84,7.72,7.72,0,0,1,2.66-1.76,9.61,9.61,0,0,1,7.18.2,7.66,7.66,0,0,1,2.82,2.26,10.13,10.13,0,0,1,1.72,3.48,16,16,0,0,1,.58,4.46Zm-18.12.44a2.89,2.89,0,0,1-.74.46,4,4,0,0,1-.62.22c-1.28.29-2.34.56-3.18.82a9.26,9.26,0,0,0-2,.8,2.71,2.71,0,0,0-1,.9,2.34,2.34,0,0,0,.42,2.78,2.93,2.93,0,0,0,1.9.58,5.83,5.83,0,0,0,3.86-1.08,3.66,3.66,0,0,0,1.3-2.8Zm13.64-3h0a6,6,0,0,0-1.26-3.16,3.92,3.92,0,0,0-3.22-1.24,3.77,3.77,0,0,0-3.1,1.24,6.84,6.84,0,0,0-1.38,3.16Z"/><path class="cls-3" d="M258.88,168.93a18.43,18.43,0,0,1-2.66-.2,10.73,10.73,0,0,1-2.62-.76,1.56,1.56,0,0,1-.42-.28.53.53,0,0,1-.1-.36l.16-3.32c0-.46.25-.58.68-.36a10.46,10.46,0,0,0,2.48,1,10.88,10.88,0,0,0,2.52.32,4.32,4.32,0,0,0,3.42-1.38A5.34,5.34,0,0,0,263.6,160a5.66,5.66,0,0,1-1.92,1.56,5.21,5.21,0,0,1-2.24.52,6.85,6.85,0,0,1-3-.64,7.7,7.7,0,0,1-2.46-2,9.57,9.57,0,0,1-1.76-3.26,12.46,12.46,0,0,1-.6-3.8,12.23,12.23,0,0,1,2.12-7.56,6.67,6.67,0,0,1,5.6-2.8,6.56,6.56,0,0,1,1.9.26,4.29,4.29,0,0,1,1.64.88,4.65,4.65,0,0,1,1.1,1.26l0-1.48a.6.6,0,0,1,0-.42c.05-.07.19-.1.4-.1h2.88c.27,0,.4.18.4.56v15.36c0,3.36-.75,6-2.24,7.82A7.89,7.89,0,0,1,258.88,168.93Zm.88-23a3.06,3.06,0,0,0-2.82,1.86,9.76,9.76,0,0,0-1,4.58,10.27,10.27,0,0,0,.3,2.56,5.37,5.37,0,0,0,.84,1.88,5.12,5.12,0,0,0,1.14,1.14,2.31,2.31,0,0,0,1.36.42,2.8,2.8,0,0,0,1.54-.42,4.11,4.11,0,0,0,1.14-1.1,6.4,6.4,0,0,0,.82-1.88,9.4,9.4,0,0,0,.34-2.6,9.86,9.86,0,0,0-1-4.6A3,3,0,0,0,259.76,145.93Z"/><path class="cls-3" d="M278.88,168.93a18.43,18.43,0,0,1-2.66-.2,10.73,10.73,0,0,1-2.62-.76,1.56,1.56,0,0,1-.42-.28.53.53,0,0,1-.1-.36l.16-3.32c0-.46.25-.58.68-.36a10.46,10.46,0,0,0,2.48,1,10.88,10.88,0,0,0,2.52.32,4.32,4.32,0,0,0,3.42-1.38A5.34,5.34,0,0,0,283.6,160a5.66,5.66,0,0,1-1.92,1.56,5.21,5.21,0,0,1-2.24.52,6.85,6.85,0,0,1-3-.64,7.7,7.7,0,0,1-2.46-2,9.57,9.57,0,0,1-1.76-3.26,12.46,12.46,0,0,1-.6-3.8,12.23,12.23,0,0,1,2.12-7.56,6.67,6.67,0,0,1,5.6-2.8,6.56,6.56,0,0,1,1.9.26,4.29,4.29,0,0,1,1.64.88,4.65,4.65,0,0,1,1.1,1.26l0-1.48a.6.6,0,0,1,0-.42c.05-.07.19-.1.4-.1h2.88c.27,0,.4.18.4.56v15.36c0,3.36-.75,6-2.24,7.82A7.89,7.89,0,0,1,278.88,168.93Zm.88-23a3.06,3.06,0,0,0-2.82,1.86,9.76,9.76,0,0,0-1,4.58,10.27,10.27,0,0,0,.3,2.56,5.37,5.37,0,0,0,.84,1.88,5.12,5.12,0,0,0,1.14,1.14,2.31,2.31,0,0,0,1.36.42,2.8,2.8,0,0,0,1.54-.42,4.11,4.11,0,0,0,1.14-1.1,6.4,6.4,0,0,0,.82-1.88,9.4,9.4,0,0,0,.34-2.6,9.86,9.86,0,0,0-1-4.6A3,3,0,0,0,279.76,145.93Z"/><path class="cls-3" d="M308,153.89a.67.67,0,0,1-.14.46.52.52,0,0,1-.38.14h-11a6.33,6.33,0,0,0,1.1,3.62,3.9,3.9,0,0,0,3.42,1.5,8.82,8.82,0,0,0,2.54-.34,7.93,7.93,0,0,0,2.26-1.18c.21-.11.34-.1.38,0a1.65,1.65,0,0,1,.06.48v2.84a1,1,0,0,1-.12.54,1.64,1.64,0,0,1-.4.38,11.86,11.86,0,0,1-2.1.88,9.33,9.33,0,0,1-2.62.32c-3,0-5.31-1-6.8-2.92a12.38,12.38,0,0,1-2.24-7.72,16.49,16.49,0,0,1,.48-4,11.23,11.23,0,0,1,1.5-3.5,8.51,8.51,0,0,1,2.58-2.56,6.5,6.5,0,0,1,3.6-1,6.81,6.81,0,0,1,3.66.92,7.43,7.43,0,0,1,2.44,2.42,10.61,10.61,0,0,1,1.36,3.42,19.41,19.41,0,0,1,.42,4.16c0,.18,0,.39,0,.62S308,153.81,308,153.89ZM300,145.73a2.8,2.8,0,0,0-1.7.54,3.69,3.69,0,0,0-1.16,1.44,6.78,6.78,0,0,0-.56,1.64,6.93,6.93,0,0,0-.14,1.18h7.16a6.93,6.93,0,0,0-.14-1.18,6.78,6.78,0,0,0-.56-1.64,3.56,3.56,0,0,0-1.18-1.44A2.9,2.9,0,0,0,300,145.73Z"/><path class="cls-3" d="M324,163a.42.42,0,0,1-.34-.18.64.64,0,0,1-.14-.38V151.25a8.76,8.76,0,0,0-.74-4.16,2.39,2.39,0,0,0-2.22-1.28,3.47,3.47,0,0,0-2.86,1.46,6.73,6.73,0,0,0-1.14,4.22v11c0,.34-.16.52-.48.52h-3.28a.42.42,0,0,1-.34-.18.64.64,0,0,1-.14-.38V148.05c0-1,0-2,0-2.92s0-1.67-.1-2.2c-.05-.35.13-.52.56-.52h3.12c.29,0,.41.1.36.32l0,1.46a5.65,5.65,0,0,1,1.9-1.66,5.13,5.13,0,0,1,2.58-.68,6.73,6.73,0,0,1,5,2.14q2.1,2.13,2.1,6.66v11.8c0,.34-.16.52-.48.52Z"/><path class="cls-3" d="M338.72,163.45a6.42,6.42,0,0,1-3.22-.78,7.15,7.15,0,0,1-2.36-2.2,10.89,10.89,0,0,1-1.5-3.48,17.76,17.76,0,0,1-.52-4.38,16,16,0,0,1,.54-3.9,12.25,12.25,0,0,1,1.52-3.66,7,7,0,0,1,2.36-2.34,6.07,6.07,0,0,1,3.18-.82,5.23,5.23,0,0,1,2.5.62,5.84,5.84,0,0,1,2.06,1.86V133.21a.64.64,0,0,1,.08-.4c.05-.06.16-.08.32-.08h3.44c.29,0,.44.16.44.48v29.16c0,.4-.19.6-.56.6h-3.2c-.35,0-.52-.2-.52-.6v-1.56a5,5,0,0,1-2,1.92A5.24,5.24,0,0,1,338.72,163.45Zm.92-17.48a3.22,3.22,0,0,0-3,2,11.08,11.08,0,0,0,0,9.46,3.26,3.26,0,0,0,2.92,2,2.54,2.54,0,0,0,1.48-.52,4.55,4.55,0,0,0,1.26-1.48,8.16,8.16,0,0,0,.82-2.3,12.11,12.11,0,0,0,.28-2.5,9.9,9.9,0,0,0-1-4.74A3.11,3.11,0,0,0,339.64,146Z"/><path class="cls-3" d="M368,153.89a.67.67,0,0,1-.14.46.52.52,0,0,1-.38.14h-11a6.33,6.33,0,0,0,1.1,3.62,3.9,3.9,0,0,0,3.42,1.5,8.82,8.82,0,0,0,2.54-.34,7.93,7.93,0,0,0,2.26-1.18c.21-.11.34-.1.38,0a1.65,1.65,0,0,1,.06.48v2.84a1,1,0,0,1-.12.54,1.64,1.64,0,0,1-.4.38,11.86,11.86,0,0,1-2.1.88,9.33,9.33,0,0,1-2.62.32c-3,0-5.31-1-6.8-2.92a12.38,12.38,0,0,1-2.24-7.72,16.49,16.49,0,0,1,.48-4,11.23,11.23,0,0,1,1.5-3.5,8.51,8.51,0,0,1,2.58-2.56,6.5,6.5,0,0,1,3.6-1,6.81,6.81,0,0,1,3.66.92,7.43,7.43,0,0,1,2.44,2.42,10.61,10.61,0,0,1,1.36,3.42,19.41,19.41,0,0,1,.42,4.16c0,.18,0,.39,0,.62S368,153.81,368,153.89ZM360,145.73a2.8,2.8,0,0,0-1.7.54,3.69,3.69,0,0,0-1.16,1.44,6.78,6.78,0,0,0-.56,1.64,6.93,6.93,0,0,0-.14,1.18h7.16a6.93,6.93,0,0,0-.14-1.18,6.78,6.78,0,0,0-.56-1.64,3.56,3.56,0,0,0-1.18-1.44A2.9,2.9,0,0,0,360,145.73Z"/><path class="cls-3" d="M225.52,209.25a7.73,7.73,0,0,1-11,0,8.93,8.93,0,0,1-1.94-3.82,21.66,21.66,0,0,1-.58-5.3V183.81a.75.75,0,0,1,.12-.4c.08-.14.16-.2.24-.2h3.88c.08,0,.15,0,.2.16a.8.8,0,0,1,.08.36v16.4a13.77,13.77,0,0,0,.78,5.54,2.8,2.8,0,0,0,2.74,1.58,2.84,2.84,0,0,0,2.76-1.58,13.52,13.52,0,0,0,.8-5.54v-16.4a.8.8,0,0,1,.08-.36.25.25,0,0,1,.24-.16h3.84c.08,0,.16.06.24.2a.75.75,0,0,1,.12.4v16.32a20.68,20.68,0,0,1-.62,5.28A9.54,9.54,0,0,1,225.52,209.25Z"/><path class="cls-3" d="M245.28,211a.77.77,0,0,1-.44-.1l-.2-.18L240,201.41l-4.64,9.28a.76.76,0,0,1-.2.2,1,1,0,0,1-.48.08h-3.52c-.24,0-.38-.06-.42-.16a.5.5,0,0,1,0-.36l6.88-13.88-6.36-12.88a.34.34,0,0,1,0-.34c.07-.1.25-.14.54-.14h3.32q.6,0,.72.24l4.12,8.44,4.08-8.44q.12-.24.72-.24h3.32c.29,0,.47,0,.54.14a.34.34,0,0,1,0,.34l-6.36,12.88,6.88,13.88a.5.5,0,0,1,0,.36c0,.1-.18.16-.42.16Z"/></svg>