<svg id="Layer_1" data-name="Layer 1" xmlns="http://www.w3.org/2000/svg" viewBox="0 0 460 350"><defs><style>.cls-1{fill:#db3729;}.cls-2{opacity:0.62;}.cls-3{fill:#ffc1b4;}.cls-4{fill:#fff;}</style></defs><circle class="cls-1" cx="230" cy="175" r="174"/><g class="cls-2"><path class="cls-3" d="M206.57,322.29c-1.72-.54,13.54-23.46,27.78-37.86,2.73-2.76,3.34-3.11,3.53-3,1,.36-8,13.9-18.18,26.36C213.63,315.19,207.57,322.6,206.57,322.29Z"/><path class="cls-3" d="M213.64,287.28c-.21-.48-37.18,9.64-60.1,10.48-1.11.05-3.31.11-3.54.68-1.18,3.06,56,15.08,56.06,14.87s-28.75-8.56-35.72-12.06c-1.06-.53-1.36-1.82,0-1.94C190.58,297.56,213.81,287.69,213.64,287.28Z"/><path class="cls-3" d="M237.87,287.4c.2-.49,37.17,9.63,60.1,10.48,1.1,0,3.31.1,3.53.67,1.19,3.06-55.95,15.08-56.06,14.88s28.75-8.56,35.73-12.06c1.05-.53,1.35-1.83,0-1.95C260.93,297.67,237.69,287.8,237.87,287.4Z"/></g><path class="cls-4" d="M215.85,327.11c-1.72-.76,13.54-32.81,27.78-53,2.73-3.86,3.34-4.35,3.53-4.26,1.05.51-8,19.46-18.18,36.89C222.91,317.17,216.85,327.55,215.85,327.11Z"/><path class="cls-4" d="M222.92,278.15c-.21-.69-37.17,13.47-60.1,14.65-1.11.06-3.31.15-3.53.95-1.19,4.28,56,21.09,56.06,20.81s-28.76-12-35.73-16.87c-1.05-.75-1.36-2.56,0-2.72C199.86,292.52,223.1,278.71,222.92,278.15Z"/><path class="cls-4" d="M247.15,278.3c.21-.68,37.17,13.48,60.1,14.66,1.11.06,3.31.14,3.53,1,1.19,4.27-55.95,21.09-56.06,20.8s28.76-12,35.73-16.87c1.05-.74,1.36-2.55,0-2.72C270.21,292.67,247,278.87,247.15,278.3Z"/><path class="cls-4" d="M107.08,161.91a6.25,6.25,0,0,1-1.18.62,13,13,0,0,1-1.48.46c-.55.13-1.07.23-1.58.3a12.11,12.11,0,0,1-1.4.1,7.91,7.91,0,0,1-3.9-1,10.38,10.38,0,0,1-3.3-3A15.47,15.47,0,0,1,92,154.69a19.93,19.93,0,0,1-.78-5.7,19.4,19.4,0,0,1,.74-5.37A16.35,16.35,0,0,1,94.12,139a10.81,10.81,0,0,1,3.26-3.24,7.67,7.67,0,0,1,4.06-1.2,15.09,15.09,0,0,1,2.72.24,10.48,10.48,0,0,1,2.56.76.54.54,0,0,1,.34.26.41.41,0,0,1,0,.29l-.32,3.33a.84.84,0,0,1-.14.4c-.07.08-.19.06-.38,0a11.57,11.57,0,0,0-4.8-1,3.81,3.81,0,0,0-2.22.83A6.78,6.78,0,0,0,97.3,142a14.53,14.53,0,0,0-1.22,3.28,15.64,15.64,0,0,0-.44,3.74,17.22,17.22,0,0,0,.44,4,13.45,13.45,0,0,0,1.24,3.3,7.11,7.11,0,0,0,1.74,2.2,3.76,3.76,0,0,0,2.38.74,5.85,5.85,0,0,0,1.3-.16c.44-.11.67-.27.7-.48v-6.88H99.2a.26.26,0,0,1-.24-.14.74.74,0,0,1-.08-.34V148a.76.76,0,0,1,.1-.41.3.3,0,0,1,.26-.15H107a.5.5,0,0,1,.48.2,1.75,1.75,0,0,1,.12.8v12a2.08,2.08,0,0,1-.16.92A2.37,2.37,0,0,1,107.08,161.91Z"/><path class="cls-4" d="M112.28,162.83a.48.48,0,0,1-.34-.14.54.54,0,0,1-.14-.38v-3.12a.46.46,0,0,1,.14-.34.44.44,0,0,1,.34-.14h2.52V146.27h-3.28a.45.45,0,0,1-.34-.15.5.5,0,0,1-.14-.37v-3a.46.46,0,0,1,.14-.34.44.44,0,0,1,.34-.14h6.56a.34.34,0,0,1,.26.1.32.32,0,0,1,.1.25V146a8.65,8.65,0,0,1,.86-1.46,7.74,7.74,0,0,1,1-1.12,7,7,0,0,1,1.24-.92,7.35,7.35,0,0,1,2.06-.74,8.51,8.51,0,0,1,3.34.08,6.35,6.35,0,0,1,2.7,1.23c.13.14.19.26.16.37s-.05.21-.08.32l-1.32,2.72a.5.5,0,0,1-.26.32.55.55,0,0,1-.46-.08,6.19,6.19,0,0,0-2-.72,5.81,5.81,0,0,0-2.2,0,4.66,4.66,0,0,0-3,1.8,6.63,6.63,0,0,0-1.32,2.92,21.91,21.91,0,0,0-.24,3.48v4.48h4.16a.44.44,0,0,1,.34.14.46.46,0,0,1,.14.34v3.12c0,.34-.16.52-.48.52Z"/><path class="cls-4" d="M144.16,162.83a.48.48,0,0,1-.3-.11.34.34,0,0,1-.14-.3v-1.64a5.26,5.26,0,0,1-1.94,2,5.34,5.34,0,0,1-2.74.69,6.2,6.2,0,0,1-4.94-2.28,9.81,9.81,0,0,1-1.94-6.52V142.83a.62.62,0,0,1,.14-.38.38.38,0,0,1,.3-.18H136a.36.36,0,0,1,.3.2.69.69,0,0,1,.14.4V154a7.91,7.91,0,0,0,.84,4.24,2.6,2.6,0,0,0,2.24,1.24,3.34,3.34,0,0,0,2.84-1.64,8.67,8.67,0,0,0,1.12-4.88V142.83a.62.62,0,0,1,.14-.38.45.45,0,0,1,.38-.18h3.32c.11,0,.21.07.3.22a.78.78,0,0,1,.14.42v14.76c0,.82,0,1.64,0,2.43s0,1.54,0,2.21c0,.34-.15.52-.44.52Z"/><path class="cls-4" d="M164,162.83a.42.42,0,0,1-.34-.18.64.64,0,0,1-.14-.38V151.1a8.74,8.74,0,0,0-.74-4.15,2.39,2.39,0,0,0-2.22-1.28,3.48,3.48,0,0,0-2.86,1.45,6.79,6.79,0,0,0-1.14,4.23v11c0,.34-.16.52-.48.52h-3.28a.42.42,0,0,1-.34-.18.64.64,0,0,1-.14-.38V147.91c0-1,0-2,0-2.92s-.05-1.67-.1-2.2c-.05-.35.13-.52.56-.52h3.12c.29,0,.41.1.36.32l0,1.46a5.65,5.65,0,0,1,1.9-1.66,5.13,5.13,0,0,1,2.58-.68,6.73,6.73,0,0,1,5,2.14q2.1,2.13,2.1,6.66v11.8c0,.34-.16.52-.48.52Z"/><path class="cls-4" d="M178.72,163.31a6.42,6.42,0,0,1-3.22-.78,7.15,7.15,0,0,1-2.36-2.2,10.89,10.89,0,0,1-1.5-3.48,17.76,17.76,0,0,1-.52-4.38,16,16,0,0,1,.54-3.9,12.25,12.25,0,0,1,1.52-3.66,7,7,0,0,1,2.36-2.34,6.07,6.07,0,0,1,3.18-.82,5.23,5.23,0,0,1,2.5.62,5.84,5.84,0,0,1,2.06,1.86V133.07a.64.64,0,0,1,.08-.4.42.42,0,0,1,.32-.09h3.44c.29,0,.44.17.44.49v29.16c0,.39-.19.6-.56.6h-3.2c-.35,0-.52-.21-.52-.6v-1.56a5,5,0,0,1-2,1.91A5.15,5.15,0,0,1,178.72,163.31Zm.92-17.48a3.22,3.22,0,0,0-3,2,11.08,11.08,0,0,0,0,9.46,3.27,3.27,0,0,0,2.92,2,2.54,2.54,0,0,0,1.48-.52,4.55,4.55,0,0,0,1.26-1.48,8.28,8.28,0,0,0,.82-2.3,12.11,12.11,0,0,0,.28-2.5,9.9,9.9,0,0,0-1-4.74A3.11,3.11,0,0,0,179.64,145.83Z"/><path class="cls-4" d="M192.8,162.83a.48.48,0,0,1-.34-.14.54.54,0,0,1-.14-.38v-3.12a.46.46,0,0,1,.14-.34.44.44,0,0,1,.34-.14h5.44v-21.8h-4.16a.48.48,0,0,1-.34-.14.54.54,0,0,1-.14-.38v-3.12a.46.46,0,0,1,.14-.34.44.44,0,0,1,.34-.14h8a.44.44,0,0,1,.34.14.46.46,0,0,1,.14.34v25.44h4.92a.44.44,0,0,1,.34.14.46.46,0,0,1,.14.34v3.12c0,.34-.16.52-.48.52Z"/><path class="cls-4" d="M245.2,152.1v1.45H231.68a6.58,6.58,0,0,0,1.26,4,4,4,0,0,0,3.34,1.49,5.2,5.2,0,0,0,3.32-.86,4.27,4.27,0,0,0,1.36-2.63h4.24a9.53,9.53,0,0,1-2.84,5.61,8.77,8.77,0,0,1-6,1.91,9.11,9.11,0,0,1-4-.85,8,8,0,0,1-3.08-2.67,6.78,6.78,0,0,1-3.06,2.67,11.28,11.28,0,0,1-4.58.85,7.71,7.71,0,0,1-5-1.53,6.66,6.66,0,0,1-1.34-7.4,5.6,5.6,0,0,1,1.78-2,11.18,11.18,0,0,1,3.06-1.48,34.17,34.17,0,0,1,4.42-1.11,5.06,5.06,0,0,0,1.66-.63,1.54,1.54,0,0,0,.82-1.4,2.12,2.12,0,0,0-.86-1.9,4.27,4.27,0,0,0-2.42-.58,4.54,4.54,0,0,0-2.72.74,2.71,2.71,0,0,0-1,2.38h-4.48a7.13,7.13,0,0,1,.64-3.16,6.13,6.13,0,0,1,1.76-2.2,7.41,7.41,0,0,1,2.64-1.3,12.41,12.41,0,0,1,3.32-.43,12.58,12.58,0,0,1,3.7.52,5.17,5.17,0,0,1,2.66,1.85,7.58,7.58,0,0,1,2.66-1.76,9.48,9.48,0,0,1,7.18.2,7.66,7.66,0,0,1,2.82,2.26,10.13,10.13,0,0,1,1.72,3.48,15.93,15.93,0,0,1,.58,4.45Zm-18.12.45a2.89,2.89,0,0,1-.74.46,5.51,5.51,0,0,1-.62.22c-1.28.29-2.34.56-3.18.82a9.26,9.26,0,0,0-2,.8,2.63,2.63,0,0,0-1,.9,2.34,2.34,0,0,0,.42,2.78,2.93,2.93,0,0,0,1.9.57,5.83,5.83,0,0,0,3.86-1.07,3.66,3.66,0,0,0,1.3-2.8Zm13.64-3h0a6,6,0,0,0-1.26-3.16,3.92,3.92,0,0,0-3.22-1.24,3.77,3.77,0,0,0-3.1,1.24,6.84,6.84,0,0,0-1.38,3.16Z"/><path class="cls-4" d="M258.88,168.79a17.13,17.13,0,0,1-2.66-.21,10.29,10.29,0,0,1-2.62-.75,1.84,1.84,0,0,1-.42-.28.53.53,0,0,1-.1-.36l.16-3.32c0-.46.25-.58.68-.36a10.46,10.46,0,0,0,2.48,1,10.88,10.88,0,0,0,2.52.32,4.32,4.32,0,0,0,3.42-1.38,5.34,5.34,0,0,0,1.26-3.54,5.66,5.66,0,0,1-1.92,1.56,5.21,5.21,0,0,1-2.24.52,6.85,6.85,0,0,1-3-.64,7.7,7.7,0,0,1-2.46-2A9.57,9.57,0,0,1,252.2,156a12.46,12.46,0,0,1-.6-3.8,12.23,12.23,0,0,1,2.12-7.56,6.67,6.67,0,0,1,5.6-2.8,6.92,6.92,0,0,1,1.9.25,4.46,4.46,0,0,1,1.64.89,4.65,4.65,0,0,1,1.1,1.26l0-1.48a.6.6,0,0,1,0-.42c.05-.07.19-.1.4-.1h2.88c.27,0,.4.18.4.56v15.36c0,3.36-.75,6-2.24,7.82A7.89,7.89,0,0,1,258.88,168.79Zm.88-23a3.06,3.06,0,0,0-2.82,1.86,9.76,9.76,0,0,0-1,4.58,10.27,10.27,0,0,0,.3,2.56,5.37,5.37,0,0,0,.84,1.88,5.12,5.12,0,0,0,1.14,1.14,2.38,2.38,0,0,0,1.36.42,2.88,2.88,0,0,0,1.54-.42,4.11,4.11,0,0,0,1.14-1.1,6.52,6.52,0,0,0,.82-1.88,9.4,9.4,0,0,0,.34-2.6,9.93,9.93,0,0,0-1-4.61A3,3,0,0,0,259.76,145.79Z"/><path class="cls-4" d="M278.88,168.79a17.13,17.13,0,0,1-2.66-.21,10.29,10.29,0,0,1-2.62-.75,1.84,1.84,0,0,1-.42-.28.53.53,0,0,1-.1-.36l.16-3.32c0-.46.25-.58.68-.36a10.46,10.46,0,0,0,2.48,1,10.88,10.88,0,0,0,2.52.32,4.32,4.32,0,0,0,3.42-1.38,5.34,5.34,0,0,0,1.26-3.54,5.66,5.66,0,0,1-1.92,1.56,5.21,5.21,0,0,1-2.24.52,6.85,6.85,0,0,1-3-.64,7.7,7.7,0,0,1-2.46-2A9.57,9.57,0,0,1,272.2,156a12.46,12.46,0,0,1-.6-3.8,12.23,12.23,0,0,1,2.12-7.56,6.67,6.67,0,0,1,5.6-2.8,6.92,6.92,0,0,1,1.9.25,4.46,4.46,0,0,1,1.64.89,4.65,4.65,0,0,1,1.1,1.26l0-1.48a.6.6,0,0,1,0-.42c.05-.07.19-.1.4-.1h2.88c.27,0,.4.18.4.56v15.36c0,3.36-.75,6-2.24,7.82A7.89,7.89,0,0,1,278.88,168.79Zm.88-23a3.06,3.06,0,0,0-2.82,1.86,9.76,9.76,0,0,0-1,4.58,10.27,10.27,0,0,0,.3,2.56,5.37,5.37,0,0,0,.84,1.88,5.12,5.12,0,0,0,1.14,1.14,2.38,2.38,0,0,0,1.36.42,2.88,2.88,0,0,0,1.54-.42,4.11,4.11,0,0,0,1.14-1.1,6.52,6.52,0,0,0,.82-1.88,9.4,9.4,0,0,0,.34-2.6,9.93,9.93,0,0,0-1-4.61A3,3,0,0,0,279.76,145.79Z"/><path class="cls-4" d="M308,153.75a.67.67,0,0,1-.14.46.52.52,0,0,1-.38.14h-11a6.33,6.33,0,0,0,1.1,3.62,3.9,3.9,0,0,0,3.42,1.5,8.47,8.47,0,0,0,2.54-.35A7.64,7.64,0,0,0,305.8,158c.21-.11.34-.1.38,0a1.65,1.65,0,0,1,.06.48v2.84a1,1,0,0,1-.12.54,1.64,1.64,0,0,1-.4.38,11.1,11.1,0,0,1-2.1.87,8.94,8.94,0,0,1-2.62.33c-3,0-5.31-1-6.8-2.92a12.38,12.38,0,0,1-2.24-7.72,16.49,16.49,0,0,1,.48-4,11.23,11.23,0,0,1,1.5-3.5,8.51,8.51,0,0,1,2.58-2.56,6.5,6.5,0,0,1,3.6-1,6.81,6.81,0,0,1,3.66.92,7.4,7.4,0,0,1,2.44,2.41,10.66,10.66,0,0,1,1.36,3.43,19.41,19.41,0,0,1,.42,4.16c0,.18,0,.39,0,.62S308,153.67,308,153.75ZM300,145.58a2.87,2.87,0,0,0-1.7.54,3.79,3.79,0,0,0-1.16,1.45,6.78,6.78,0,0,0-.56,1.64,6.93,6.93,0,0,0-.14,1.18h7.16a6.93,6.93,0,0,0-.14-1.18,6.78,6.78,0,0,0-.56-1.64,3.66,3.66,0,0,0-1.18-1.45A3,3,0,0,0,300,145.58Z"/><path class="cls-4" d="M324,162.83a.42.42,0,0,1-.34-.18.64.64,0,0,1-.14-.38V151.1a8.74,8.74,0,0,0-.74-4.15,2.39,2.39,0,0,0-2.22-1.28,3.48,3.48,0,0,0-2.86,1.45,6.79,6.79,0,0,0-1.14,4.23v11c0,.34-.16.52-.48.52h-3.28a.42.42,0,0,1-.34-.18.64.64,0,0,1-.14-.38V147.91c0-1,0-2,0-2.92s0-1.67-.1-2.2c-.05-.35.13-.52.56-.52h3.12c.29,0,.41.1.36.32l0,1.46a5.65,5.65,0,0,1,1.9-1.66,5.13,5.13,0,0,1,2.58-.68,6.73,6.73,0,0,1,5,2.14q2.1,2.13,2.1,6.66v11.8c0,.34-.16.52-.48.52Z"/><path class="cls-4" d="M338.72,163.31a6.42,6.42,0,0,1-3.22-.78,7.15,7.15,0,0,1-2.36-2.2,10.89,10.89,0,0,1-1.5-3.48,17.76,17.76,0,0,1-.52-4.38,16,16,0,0,1,.54-3.9,12.25,12.25,0,0,1,1.52-3.66,7,7,0,0,1,2.36-2.34,6.07,6.07,0,0,1,3.18-.82,5.23,5.23,0,0,1,2.5.62,5.84,5.84,0,0,1,2.06,1.86V133.07a.64.64,0,0,1,.08-.4.42.42,0,0,1,.32-.09h3.44c.29,0,.44.17.44.49v29.16c0,.39-.19.6-.56.6h-3.2c-.35,0-.52-.21-.52-.6v-1.56a5,5,0,0,1-2,1.91A5.15,5.15,0,0,1,338.72,163.31Zm.92-17.48a3.22,3.22,0,0,0-3,2,11.08,11.08,0,0,0,0,9.46,3.27,3.27,0,0,0,2.92,2,2.54,2.54,0,0,0,1.48-.52,4.55,4.55,0,0,0,1.26-1.48,8.28,8.28,0,0,0,.82-2.3,12.11,12.11,0,0,0,.28-2.5,9.9,9.9,0,0,0-1-4.74A3.11,3.11,0,0,0,339.64,145.83Z"/><path class="cls-4" d="M368,153.75a.67.67,0,0,1-.14.46.52.52,0,0,1-.38.14h-11a6.33,6.33,0,0,0,1.1,3.62,3.9,3.9,0,0,0,3.42,1.5,8.47,8.47,0,0,0,2.54-.35A7.64,7.64,0,0,0,365.8,158c.21-.11.34-.1.38,0a1.65,1.65,0,0,1,.06.48v2.84a1,1,0,0,1-.12.54,1.64,1.64,0,0,1-.4.38,11.1,11.1,0,0,1-2.1.87,8.94,8.94,0,0,1-2.62.33c-3,0-5.31-1-6.8-2.92a12.38,12.38,0,0,1-2.24-7.72,16.49,16.49,0,0,1,.48-4,11.23,11.23,0,0,1,1.5-3.5,8.51,8.51,0,0,1,2.58-2.56,6.5,6.5,0,0,1,3.6-1,6.81,6.81,0,0,1,3.66.92,7.4,7.4,0,0,1,2.44,2.41,10.66,10.66,0,0,1,1.36,3.43,19.41,19.41,0,0,1,.42,4.16c0,.18,0,.39,0,.62S368,153.67,368,153.75ZM360,145.58a2.87,2.87,0,0,0-1.7.54,3.79,3.79,0,0,0-1.16,1.45,6.78,6.78,0,0,0-.56,1.64,6.93,6.93,0,0,0-.14,1.18h7.16a6.93,6.93,0,0,0-.14-1.18,6.78,6.78,0,0,0-.56-1.64,3.66,3.66,0,0,0-1.18-1.45A3,3,0,0,0,360,145.58Z"/><path class="cls-4" d="M212.44,210.83a.79.79,0,0,1-.62-.21.84.84,0,0,1-.22-.4l-1.4-10L210,198l-.16,2.2-1.4,10a1.11,1.11,0,0,1-.32.51,1.35,1.35,0,0,1-.6.1h-2.8a.69.69,0,0,1-.52-.21,1.19,1.19,0,0,1-.28-.39l-3-19.52a.41.41,0,0,1,0-.32c0-.08.31-.12.76-.12h2.16a1.26,1.26,0,0,1,.7.12.56.56,0,0,1,.18.32L206,201.42l.24,3.29.28-3.29,1.32-9.11a.49.49,0,0,1,.22-.32,1.18,1.18,0,0,1,.62-.12h2.68c.48,0,.75.14.8.44l1.32,9.11.32,3.29.24-3.29,1.2-10.71a.57.57,0,0,1,.2-.3.82.82,0,0,1,.56-.14h2.28a1.25,1.25,0,0,1,.72.12.32.32,0,0,1,.08.32l-3,19.52a2,2,0,0,1-.28.48.87.87,0,0,1-.56.12Z"/><path class="cls-4" d="M238,201.75a.67.67,0,0,1-.14.46.52.52,0,0,1-.38.14h-11a6.33,6.33,0,0,0,1.1,3.62,3.9,3.9,0,0,0,3.42,1.5,8.47,8.47,0,0,0,2.54-.35A7.64,7.64,0,0,0,235.8,206c.21-.11.34-.1.38,0a1.65,1.65,0,0,1,.06.48v2.84a1,1,0,0,1-.12.54,1.64,1.64,0,0,1-.4.38,11.1,11.1,0,0,1-2.1.87,8.94,8.94,0,0,1-2.62.33c-3,0-5.31-1-6.8-2.92a12.38,12.38,0,0,1-2.24-7.72,16.49,16.49,0,0,1,.48-4,11.23,11.23,0,0,1,1.5-3.5,8.51,8.51,0,0,1,2.58-2.56,6.5,6.5,0,0,1,3.6-1,6.81,6.81,0,0,1,3.66.92,7.4,7.4,0,0,1,2.44,2.41,10.66,10.66,0,0,1,1.36,3.43,19.41,19.41,0,0,1,.42,4.16c0,.18,0,.39,0,.62S238,201.67,238,201.75ZM230,193.58a2.87,2.87,0,0,0-1.7.54,3.79,3.79,0,0,0-1.16,1.45,6.78,6.78,0,0,0-.56,1.64,6.93,6.93,0,0,0-.14,1.18h7.16a6.93,6.93,0,0,0-.14-1.18,6.78,6.78,0,0,0-.56-1.64,3.66,3.66,0,0,0-1.18-1.45A3,3,0,0,0,230,193.58Z"/><path class="cls-4" d="M251,211.31a5.15,5.15,0,0,1-2.6-.73,5,5,0,0,1-2-1.91v1.56c0,.39-.17.6-.52.6h-3.2c-.37,0-.56-.21-.56-.6V181.07c0-.32.15-.49.44-.49h3.44a.42.42,0,0,1,.32.09.64.64,0,0,1,.08.4v11.16a5.84,5.84,0,0,1,2.06-1.86,5.23,5.23,0,0,1,2.5-.62,6.07,6.07,0,0,1,3.18.82,7,7,0,0,1,2.36,2.34,12.25,12.25,0,0,1,1.52,3.66,16,16,0,0,1,.54,3.9,17.76,17.76,0,0,1-.52,4.38,10.89,10.89,0,0,1-1.5,3.48,7.15,7.15,0,0,1-2.36,2.2A6.42,6.42,0,0,1,251,211.31Zm-.92-17.48a3.11,3.11,0,0,0-2.82,1.9,9.9,9.9,0,0,0-1,4.74,12.27,12.27,0,0,0,.28,2.46,8.22,8.22,0,0,0,.82,2.34,4.55,4.55,0,0,0,1.26,1.48,2.54,2.54,0,0,0,1.48.52,3.27,3.27,0,0,0,2.92-2,11.08,11.08,0,0,0,0-9.46A3.22,3.22,0,0,0,250.12,193.83Z"/></svg>