<svg id="Layer_1" data-name="Layer 1" xmlns="http://www.w3.org/2000/svg" viewBox="0 0 865 1675"><defs><style>.cls-1{fill:#db3729;}</style></defs><path class="cls-1" d="M596.62,599.37c-87.93-34.39-237.06,234.33-390,193-11.47-3.1-57.27-15.48-80.28-56-19.8-34.9-18.81-83.81,6.18-115,22.9-28.59,62.69-38.24,86.45-44,21.47-5.21,50.69-8.67,50.43-12-.1-1.25-4.27-1.86-5.15-2-18.25-3-117.9-53.11-117.32-128,.31-40.2,29.45-82.84,69-99,66.4-27.18,145,27.45,176,49,59.69,41.49,72.68,80.11,149.22,119,33,16.74,49.44,25.11,63.81,20,62.7-22.33,93.11-265.12-38.08-408-84.1-91.6-240.41-148.45-345.79-94-78.2,40.39-99.78,127.3-134.82,339-75.34,455.12-112,687.07-61.75,902,38.11,163.07,81.67,349.43,222.3,399,93.1,32.82,190.5-7.8,361.23-79,143.43-59.82,221.8-93.92,247-174,23.85-75.83-2.4-185.14-91.6-237-88.66-51.55-206.13-27-256.26,33-12.14,14.52-41.53,49.68-41.16,95,.17,21.4,4.92,42.6-5.15,78-5.14,18.07-10.81,24.41-17.5,29-16.8,11.51-40.59,11.35-56.6,0-33.05-23.44-24.59-77.89-12.35-88,.86-.71,4.76-3.7,4.12-5-.86-1.74-9,1.13-15.44,2-16.78,2.28-31.35-7.78-36-11-14.4-9.94-27.63-28.88-25.73-50,3-33.59,42.13-48.83,45.28-50,25-9.31,37.94,1.42,74.1-1,0,0,27.91-1.87,69-19C582.78,1146.47,710.9,644.07,596.62,599.37Z"/></svg>