<svg id="Layer_1" data-name="Layer 1" xmlns="http://www.w3.org/2000/svg" viewBox="0 0 460 350"><defs><style>.cls-1{fill:#db3729;}.cls-2{opacity:0.62;}.cls-3{fill:#ffc1b4;}.cls-4{fill:#fff;}</style></defs><circle class="cls-1" cx="230" cy="175" r="174"/><g class="cls-2"><path class="cls-3" d="M202.91,321.42c-12.57-1.1-26.37-8.23-24.63-15.07,1.33-5.25,11.49-9,20-9.17,16.3-.32,31.23,12.28,27.59,18.78C223.3,320.6,211.22,322.14,202.91,321.42Z"/><path class="cls-3" d="M210.8,280.59c-4.8,4.33,3.67,17.64,18.06,19.65,9.33,1.3,21.43-2.1,22.66-7,1.54-6.09-14.59-11.31-16.09-11.79C228,279.11,214.72,277.06,210.8,280.59Z"/><path class="cls-3" d="M249.23,272.73c-2.66,1.76.37,8,6.89,10.92,5.58,2.45,14.07,2.54,15.77.43s-4-6.4-8.21-8.51S251.74,271.07,249.23,272.73Z"/><path class="cls-3" d="M277.14,273c-2.32,2.74.79,5.71,1,5.89,2.24,2.07,6.78,3.4,8.87,2.41,1.61-.77,1.24-2.68.65-5.68s-.85-4.43-2.62-5C282.65,269.75,278.78,271,277.14,273Z"/><path class="cls-3" d="M297.18,274.26a4.14,4.14,0,0,0-3.94,4.15,3.65,3.65,0,0,0,2.95,3.27c2.65.39,6.78-2.36,5.92-4.8C301.61,275.47,299.42,274.09,297.18,274.26Z"/></g><path class="cls-4" d="M191.33,322.65C178.75,321,165,310.28,166.7,300c1.33-7.9,11.49-13.54,20-13.79,16.31-.5,31.23,18.46,27.59,28.24C211.72,321.43,199.63,323.74,191.33,322.65Z"/><path class="cls-4" d="M199.21,261.23c-4.8,6.51,3.67,26.54,18.07,29.56,9.33,2,21.42-3.15,22.66-10.51,1.54-9.16-14.59-17-16.09-17.73C216.37,259,203.13,255.91,199.21,261.23Z"/><path class="cls-4" d="M237.64,249.41c-2.65,2.65.37,12.11,6.9,16.42,5.58,3.68,14.06,3.83,15.76.66s-3.95-9.64-8.21-12.81S240.16,246.9,237.64,249.41Z"/><path class="cls-4" d="M265.56,249.74c-2.33,4.12.79,8.59,1,8.87,2.24,3.1,6.78,5.11,8.86,3.61,1.61-1.16,1.24-4,.66-8.54s-.86-6.66-2.63-7.55C271.07,244.93,267.2,246.83,265.56,249.74Z"/><path class="cls-4" d="M285.6,251.71c-2.66.3-4.07,3.72-4,6.24.1,1.93,1.15,4.53,3,4.93,2.64.58,6.78-3.56,5.91-7.23C290,253.53,287.84,251.46,285.6,251.71Z"/><path class="cls-4" d="M107.08,162.38a5.72,5.72,0,0,1-1.18.62,11.29,11.29,0,0,1-1.48.46c-.55.13-1.07.23-1.58.3a10.23,10.23,0,0,1-1.4.1,7.91,7.91,0,0,1-3.9-1,10.27,10.27,0,0,1-3.3-3A15.24,15.24,0,0,1,92,155.16a19.93,19.93,0,0,1-.78-5.7A19.33,19.33,0,0,1,92,144.1a16.41,16.41,0,0,1,2.14-4.64,10.81,10.81,0,0,1,3.26-3.24,7.86,7.86,0,0,1,4.06-1.2,16.06,16.06,0,0,1,2.72.24,10.48,10.48,0,0,1,2.56.76.61.61,0,0,1,.34.26.44.44,0,0,1,0,.3l-.32,3.32a.8.8,0,0,1-.14.4c-.07.08-.19.07-.38,0a11.57,11.57,0,0,0-4.8-1,3.76,3.76,0,0,0-2.22.84,6.65,6.65,0,0,0-1.92,2.34,14.53,14.53,0,0,0-1.22,3.28,15.7,15.7,0,0,0-.44,3.74,17.22,17.22,0,0,0,.44,4,13.15,13.15,0,0,0,1.24,3.3,7,7,0,0,0,1.74,2.2,3.76,3.76,0,0,0,2.38.74,5.32,5.32,0,0,0,1.3-.16c.44-.11.67-.27.7-.48v-6.88H99.2A.26.26,0,0,1,99,152a.71.71,0,0,1-.08-.34V148.5a.72.72,0,0,1,.1-.4.29.29,0,0,1,.26-.16H107a.52.52,0,0,1,.48.2,1.75,1.75,0,0,1,.12.8v12a2.05,2.05,0,0,1-.16.92A2.15,2.15,0,0,1,107.08,162.38Z"/><path class="cls-4" d="M112.28,163.3a.48.48,0,0,1-.34-.14.52.52,0,0,1-.14-.38v-3.12a.48.48,0,0,1,.48-.48h2.52V146.74h-3.28a.48.48,0,0,1-.34-.14.52.52,0,0,1-.14-.38v-3a.48.48,0,0,1,.48-.48h6.56a.34.34,0,0,1,.36.36v3.4a8.65,8.65,0,0,1,.86-1.46,8.31,8.31,0,0,1,1-1.12,7.53,7.53,0,0,1,1.24-.92,7.35,7.35,0,0,1,2.06-.74,8.7,8.7,0,0,1,3.34.08,6.36,6.36,0,0,1,2.7,1.24c.13.13.19.25.16.36l-.08.32L128.4,147a.48.48,0,0,1-.26.32.52.52,0,0,1-.46-.08,6.19,6.19,0,0,0-2-.72,6.25,6.25,0,0,0-2.2,0,4.66,4.66,0,0,0-3,1.8,6.63,6.63,0,0,0-1.32,2.92,22.09,22.09,0,0,0-.24,3.48v4.48h4.16a.48.48,0,0,1,.48.48v3.12c0,.35-.16.52-.48.52Z"/><path class="cls-4" d="M144.16,163.3a.47.47,0,0,1-.3-.1.36.36,0,0,1-.14-.3v-1.65a5.36,5.36,0,0,1-1.94,2,5.43,5.43,0,0,1-2.74.68,6.2,6.2,0,0,1-4.94-2.28,9.8,9.8,0,0,1-1.94-6.52V143.3a.64.64,0,0,1,.14-.38.38.38,0,0,1,.3-.18H136a.38.38,0,0,1,.3.2.72.72,0,0,1,.14.4V154.5a7.91,7.91,0,0,0,.84,4.24,2.58,2.58,0,0,0,2.24,1.24,3.34,3.34,0,0,0,2.84-1.64,8.65,8.65,0,0,0,1.12-4.88V143.3a.64.64,0,0,1,.14-.38.45.45,0,0,1,.38-.18h3.32c.11,0,.21.07.3.22a.84.84,0,0,1,.14.42v14.76c0,.83,0,1.64,0,2.44s0,1.53,0,2.2c0,.35-.15.52-.44.52Z"/><path class="cls-4" d="M164,163.3a.42.42,0,0,1-.34-.18.64.64,0,0,1-.14-.38V151.58a8.76,8.76,0,0,0-.74-4.16,2.4,2.4,0,0,0-2.22-1.28,3.49,3.49,0,0,0-2.86,1.46,6.73,6.73,0,0,0-1.14,4.22v11c0,.35-.16.52-.48.52h-3.28a.42.42,0,0,1-.34-.18.64.64,0,0,1-.14-.38V148.38c0-1,0-2,0-2.92s-.05-1.67-.1-2.2c-.05-.35.13-.52.56-.52h3.12c.29,0,.41.11.36.32l0,1.46a5.62,5.62,0,0,1,1.9-1.65,5.14,5.14,0,0,1,2.58-.69,6.73,6.73,0,0,1,5,2.14q2.1,2.15,2.1,6.66v11.8c0,.35-.16.52-.48.52Z"/><path class="cls-4" d="M178.72,163.78a6.42,6.42,0,0,1-3.22-.78,7,7,0,0,1-2.36-2.2,10.89,10.89,0,0,1-1.5-3.48,17.64,17.64,0,0,1-.52-4.38,16.11,16.11,0,0,1,.54-3.9,12.25,12.25,0,0,1,1.52-3.66,7.22,7.22,0,0,1,2.36-2.34,6.07,6.07,0,0,1,3.18-.82,5.35,5.35,0,0,1,2.5.62,5.84,5.84,0,0,1,2.06,1.86V133.54a.66.66,0,0,1,.08-.4.48.48,0,0,1,.32-.08h3.44c.29,0,.44.16.44.48V162.7c0,.4-.19.6-.56.6h-3.2c-.35,0-.52-.2-.52-.6v-1.56a5,5,0,0,1-2,1.92A5.24,5.24,0,0,1,178.72,163.78Zm.92-17.48a3.23,3.23,0,0,0-3,2,11.08,11.08,0,0,0,0,9.46,3.26,3.26,0,0,0,2.92,2,2.47,2.47,0,0,0,1.48-.52,4.55,4.55,0,0,0,1.26-1.48,8.16,8.16,0,0,0,.82-2.3,12,12,0,0,0,.28-2.5,10,10,0,0,0-1-4.74A3.11,3.11,0,0,0,179.64,146.3Z"/><path class="cls-4" d="M192.8,163.3a.48.48,0,0,1-.34-.14.52.52,0,0,1-.14-.38v-3.12a.48.48,0,0,1,.48-.48h5.44v-21.8h-4.16a.48.48,0,0,1-.34-.14.52.52,0,0,1-.14-.38v-3.12a.48.48,0,0,1,.48-.48h8a.48.48,0,0,1,.48.48v25.44h4.92a.48.48,0,0,1,.48.48v3.12c0,.35-.16.52-.48.52Z"/><path class="cls-4" d="M245.2,152.58V154H231.68a6.61,6.61,0,0,0,1.26,4,4,4,0,0,0,3.34,1.48,5.2,5.2,0,0,0,3.32-.86,4.24,4.24,0,0,0,1.36-2.62h4.24a9.53,9.53,0,0,1-2.84,5.6,8.78,8.78,0,0,1-6,1.92,9.11,9.11,0,0,1-4-.86,8,8,0,0,1-3.08-2.66,6.76,6.76,0,0,1-3.06,2.66,11.27,11.27,0,0,1-4.58.86,7.66,7.66,0,0,1-5-1.54,6.66,6.66,0,0,1-1.34-7.4,5.6,5.6,0,0,1,1.78-2,11.48,11.48,0,0,1,3.06-1.48,34.29,34.29,0,0,1,4.42-1.1,5.32,5.32,0,0,0,1.66-.64,1.53,1.53,0,0,0,.82-1.4,2.14,2.14,0,0,0-.86-1.9,4.27,4.27,0,0,0-2.42-.58,4.61,4.61,0,0,0-2.72.74,2.73,2.73,0,0,0-1,2.38h-4.48a7.13,7.13,0,0,1,.64-3.16,6.22,6.22,0,0,1,1.76-2.2,7.41,7.41,0,0,1,2.64-1.3,12.42,12.42,0,0,1,3.32-.42,12.25,12.25,0,0,1,3.7.52,5.21,5.21,0,0,1,2.66,1.84,7.87,7.87,0,0,1,2.66-1.76,8.81,8.81,0,0,1,3.3-.6,9,9,0,0,1,3.88.8,7.76,7.76,0,0,1,2.82,2.26,10.13,10.13,0,0,1,1.72,3.48,16,16,0,0,1,.58,4.46Zm-18.12.44a2.64,2.64,0,0,1-.74.46,4,4,0,0,1-.62.22c-1.28.29-2.34.57-3.18.82a9.26,9.26,0,0,0-2,.8,2.71,2.71,0,0,0-1,.9A2.34,2.34,0,0,0,220,159a2.88,2.88,0,0,0,1.9.58,5.83,5.83,0,0,0,3.86-1.08,3.64,3.64,0,0,0,1.3-2.8Zm13.64-3h0a6,6,0,0,0-1.26-3.16,3.92,3.92,0,0,0-3.22-1.24,3.77,3.77,0,0,0-3.1,1.24A6.89,6.89,0,0,0,231.8,150Z"/><path class="cls-4" d="M258.88,169.26a18.43,18.43,0,0,1-2.66-.2,10.31,10.31,0,0,1-2.62-.76,1.56,1.56,0,0,1-.42-.28.53.53,0,0,1-.1-.36l.16-3.32c0-.45.25-.57.68-.36a9.67,9.67,0,0,0,2.48,1,10.88,10.88,0,0,0,2.52.32,4.32,4.32,0,0,0,3.42-1.38,5.34,5.34,0,0,0,1.26-3.54,5.66,5.66,0,0,1-1.92,1.56,5.07,5.07,0,0,1-2.24.52,6.71,6.71,0,0,1-3-.64,7.7,7.7,0,0,1-2.46-2,9.57,9.57,0,0,1-1.76-3.26,12.41,12.41,0,0,1-.6-3.8,12.27,12.27,0,0,1,2.12-7.56,6.67,6.67,0,0,1,5.6-2.8,6.92,6.92,0,0,1,1.9.26,4.43,4.43,0,0,1,1.64.88,4.65,4.65,0,0,1,1.1,1.26l0-1.48a.62.62,0,0,1,0-.42c.05-.07.19-.1.4-.1h2.88c.27,0,.4.19.4.56v15.36q0,5-2.24,7.82A7.89,7.89,0,0,1,258.88,169.26Zm.88-23a3.06,3.06,0,0,0-2.82,1.86,9.79,9.79,0,0,0-1,4.58,10.22,10.22,0,0,0,.3,2.56,5.37,5.37,0,0,0,.84,1.88,5.12,5.12,0,0,0,1.14,1.14,2.31,2.31,0,0,0,1.36.42,2.8,2.8,0,0,0,1.54-.42,4.11,4.11,0,0,0,1.14-1.1,6.28,6.28,0,0,0,.82-1.88,9.4,9.4,0,0,0,.34-2.6,9.89,9.89,0,0,0-1-4.6A3,3,0,0,0,259.76,146.26Z"/><path class="cls-4" d="M278.88,169.26a18.43,18.43,0,0,1-2.66-.2,10.31,10.31,0,0,1-2.62-.76,1.56,1.56,0,0,1-.42-.28.53.53,0,0,1-.1-.36l.16-3.32c0-.45.25-.57.68-.36a9.67,9.67,0,0,0,2.48,1,10.88,10.88,0,0,0,2.52.32,4.32,4.32,0,0,0,3.42-1.38,5.34,5.34,0,0,0,1.26-3.54,5.66,5.66,0,0,1-1.92,1.56,5.07,5.07,0,0,1-2.24.52,6.71,6.71,0,0,1-3-.64,7.7,7.7,0,0,1-2.46-2,9.57,9.57,0,0,1-1.76-3.26,12.41,12.41,0,0,1-.6-3.8,12.27,12.27,0,0,1,2.12-7.56,6.67,6.67,0,0,1,5.6-2.8,6.92,6.92,0,0,1,1.9.26,4.43,4.43,0,0,1,1.64.88,4.65,4.65,0,0,1,1.1,1.26l0-1.48a.62.62,0,0,1,0-.42c.05-.07.19-.1.4-.1h2.88c.27,0,.4.19.4.56v15.36q0,5-2.24,7.82A7.89,7.89,0,0,1,278.88,169.26Zm.88-23a3.06,3.06,0,0,0-2.82,1.86,9.79,9.79,0,0,0-1,4.58,10.22,10.22,0,0,0,.3,2.56,5.37,5.37,0,0,0,.84,1.88,5.12,5.12,0,0,0,1.14,1.14,2.31,2.31,0,0,0,1.36.42,2.8,2.8,0,0,0,1.54-.42,4.11,4.11,0,0,0,1.14-1.1,6.28,6.28,0,0,0,.82-1.88,9.4,9.4,0,0,0,.34-2.6,9.89,9.89,0,0,0-1-4.6A3,3,0,0,0,279.76,146.26Z"/><path class="cls-4" d="M308,154.22a.65.65,0,0,1-.14.46.52.52,0,0,1-.38.14h-11a6.33,6.33,0,0,0,1.1,3.62,3.9,3.9,0,0,0,3.42,1.5,8.49,8.49,0,0,0,2.54-.34,7.93,7.93,0,0,0,2.26-1.18c.21-.11.34-.09.38,0a1.65,1.65,0,0,1,.06.48v2.84a1,1,0,0,1-.12.54,1.47,1.47,0,0,1-.4.38,11.15,11.15,0,0,1-2.1.88,9.33,9.33,0,0,1-2.62.32q-4.56,0-6.8-2.92a12.38,12.38,0,0,1-2.24-7.72,16.49,16.49,0,0,1,.48-4,11.33,11.33,0,0,1,1.5-3.5,8.63,8.63,0,0,1,2.58-2.56,6.5,6.5,0,0,1,3.6-1,6.9,6.9,0,0,1,3.66.92,7.43,7.43,0,0,1,2.44,2.42,10.61,10.61,0,0,1,1.36,3.42,19.48,19.48,0,0,1,.42,4.16c0,.19,0,.39,0,.62S308,154.14,308,154.22ZM300,146.06a2.8,2.8,0,0,0-1.7.54,3.69,3.69,0,0,0-1.16,1.44,6.93,6.93,0,0,0-.56,1.64,7,7,0,0,0-.14,1.18h7.16a7,7,0,0,0-.14-1.18,6.93,6.93,0,0,0-.56-1.64,3.56,3.56,0,0,0-1.18-1.44A2.9,2.9,0,0,0,300,146.06Z"/><path class="cls-4" d="M324,163.3a.42.42,0,0,1-.34-.18.64.64,0,0,1-.14-.38V151.58a8.76,8.76,0,0,0-.74-4.16,2.4,2.4,0,0,0-2.22-1.28,3.49,3.49,0,0,0-2.86,1.46,6.73,6.73,0,0,0-1.14,4.22v11c0,.35-.16.52-.48.52h-3.28a.42.42,0,0,1-.34-.18.64.64,0,0,1-.14-.38V148.38c0-1,0-2,0-2.92s0-1.67-.1-2.2c-.05-.35.13-.52.56-.52h3.12c.29,0,.41.11.36.32l0,1.46a5.62,5.62,0,0,1,1.9-1.65,5.14,5.14,0,0,1,2.58-.69,6.73,6.73,0,0,1,5,2.14q2.1,2.15,2.1,6.66v11.8c0,.35-.16.52-.48.52Z"/><path class="cls-4" d="M338.72,163.78a6.42,6.42,0,0,1-3.22-.78,7,7,0,0,1-2.36-2.2,10.89,10.89,0,0,1-1.5-3.48,17.64,17.64,0,0,1-.52-4.38,16.11,16.11,0,0,1,.54-3.9,12.25,12.25,0,0,1,1.52-3.66,7.22,7.22,0,0,1,2.36-2.34,6.07,6.07,0,0,1,3.18-.82,5.35,5.35,0,0,1,2.5.62,5.84,5.84,0,0,1,2.06,1.86V133.54a.66.66,0,0,1,.08-.4.48.48,0,0,1,.32-.08h3.44c.29,0,.44.16.44.48V162.7c0,.4-.19.6-.56.6h-3.2c-.35,0-.52-.2-.52-.6v-1.56a5,5,0,0,1-2,1.92A5.24,5.24,0,0,1,338.72,163.78Zm.92-17.48a3.23,3.23,0,0,0-3,2,11.08,11.08,0,0,0,0,9.46,3.26,3.26,0,0,0,2.92,2,2.47,2.47,0,0,0,1.48-.52,4.55,4.55,0,0,0,1.26-1.48,8.16,8.16,0,0,0,.82-2.3,12,12,0,0,0,.28-2.5,10,10,0,0,0-1-4.74A3.11,3.11,0,0,0,339.64,146.3Z"/><path class="cls-4" d="M368,154.22a.65.65,0,0,1-.14.46.52.52,0,0,1-.38.14h-11a6.33,6.33,0,0,0,1.1,3.62,3.9,3.9,0,0,0,3.42,1.5,8.49,8.49,0,0,0,2.54-.34,7.93,7.93,0,0,0,2.26-1.18c.21-.11.34-.09.38,0a1.65,1.65,0,0,1,.06.48v2.84a1,1,0,0,1-.12.54,1.47,1.47,0,0,1-.4.38,11.15,11.15,0,0,1-2.1.88,9.33,9.33,0,0,1-2.62.32q-4.56,0-6.8-2.92a12.38,12.38,0,0,1-2.24-7.72,16.49,16.49,0,0,1,.48-4,11.33,11.33,0,0,1,1.5-3.5,8.63,8.63,0,0,1,2.58-2.56,6.5,6.5,0,0,1,3.6-1,6.9,6.9,0,0,1,3.66.92,7.43,7.43,0,0,1,2.44,2.42,10.61,10.61,0,0,1,1.36,3.42,19.48,19.48,0,0,1,.42,4.16c0,.19,0,.39,0,.62S368,154.14,368,154.22ZM360,146.06a2.8,2.8,0,0,0-1.7.54,3.69,3.69,0,0,0-1.16,1.44,6.93,6.93,0,0,0-.56,1.64,7,7,0,0,0-.14,1.18h7.16a7,7,0,0,0-.14-1.18,6.93,6.93,0,0,0-.56-1.64,3.56,3.56,0,0,0-1.18-1.44A2.9,2.9,0,0,0,360,146.06Z"/><path class="cls-4" d="M154.28,211.3a.75.75,0,0,1-.34,0s-.06-.12-.06-.28v-1.84a6.19,6.19,0,0,1-2.4,2.1,6.56,6.56,0,0,1-2.92.7,8,8,0,0,1-2.46-.42,5.83,5.83,0,0,1-3.68-3.26,6.76,6.76,0,0,1-.54-2.8,7,7,0,0,1,.7-3.14,6.08,6.08,0,0,1,2.14-2.38,10.4,10.4,0,0,1,3.5-1.42,24.58,24.58,0,0,1,5.26-.46,6.26,6.26,0,0,0-.14-1.34,3.59,3.59,0,0,0-.5-1.18,2.9,2.9,0,0,0-1-.94,3.24,3.24,0,0,0-1.62-.38,8.1,8.1,0,0,0-2.66.48A11.5,11.5,0,0,0,145,196c-.4.27-.67.39-.82.36s-.22-.17-.22-.44v-3.12c0-.05,0-.15,0-.3a.35.35,0,0,1,.14-.34,2.15,2.15,0,0,1,.52-.36,13.1,13.1,0,0,1,2.64-1.12,10,10,0,0,1,2.92-.44q3.84,0,5.74,1.94a7.62,7.62,0,0,1,1.9,5.58v8.8c0,.72,0,1.45,0,2.2a16.5,16.5,0,0,0,.14,2c0,.37-.12.56-.44.56Zm-8.12-6.12a2.59,2.59,0,0,0,.84,2.1,2.75,2.75,0,0,0,1.8.7,4.3,4.3,0,0,0,3.48-1.66,6.13,6.13,0,0,0,1.36-4v-.44q-4.27,0-5.88.86A2.67,2.67,0,0,0,146.16,205.18Z"/><path class="cls-4" d="M174,211.3a.42.42,0,0,1-.34-.18.64.64,0,0,1-.14-.38V199.58a8.76,8.76,0,0,0-.74-4.16,2.4,2.4,0,0,0-2.22-1.28,3.49,3.49,0,0,0-2.86,1.46,6.73,6.73,0,0,0-1.14,4.22v11c0,.35-.16.52-.48.52h-3.28a.42.42,0,0,1-.34-.18.64.64,0,0,1-.14-.38V196.38c0-1,0-2,0-2.92s-.05-1.67-.1-2.2c-.05-.35.13-.52.56-.52h3.12c.29,0,.41.11.36.32l0,1.46a5.62,5.62,0,0,1,1.9-1.65,5.14,5.14,0,0,1,2.58-.69,6.73,6.73,0,0,1,5,2.14q2.1,2.15,2.1,6.66v11.8c0,.35-.16.52-.48.52Z"/><path class="cls-4" d="M182.68,211.3a.48.48,0,0,1-.34-.14.52.52,0,0,1-.14-.38v-3.12a.48.48,0,0,1,.48-.48h5.44V194.86H183.4a.48.48,0,0,1-.34-.14.52.52,0,0,1-.14-.38v-3.12a.48.48,0,0,1,.48-.48H192a.48.48,0,0,1,.48.48v16h4.92a.48.48,0,0,1,.48.48v3.12c0,.35-.16.52-.48.52Zm7-23.72a2.93,2.93,0,0,1-2.16-.88,2.88,2.88,0,0,1-.88-2.12,3,3,0,0,1,.88-2.22,2.91,2.91,0,0,1,2.16-.9,3.07,3.07,0,0,1,3.12,3.12,2.86,2.86,0,0,1-.9,2.12A3,3,0,0,1,189.72,187.58Z"/><path class="cls-4" d="M215.24,211.3c-.08,0-.15-.06-.2-.18a1,1,0,0,1-.08-.38V198.46a13.07,13.07,0,0,0-.28-3.1c-.19-.73-.49-1.1-.92-1.1a.9.9,0,0,0-.72.44,3.64,3.64,0,0,0-.5,1.44,11.9,11.9,0,0,0-.18,2.1v12.14c0,.35-.08.52-.24.52h-3.2c-.08,0-.15-.06-.2-.18a1,1,0,0,1-.08-.38V198.46c0-2.8-.45-4.2-1.28-4.2-.48,0-.82.45-1,1.36a18.14,18.14,0,0,0-.3,3.72v11.44c0,.35-.09.52-.28.52h-3.32c-.05,0-.11-.06-.16-.18a1,1,0,0,1-.08-.38V196.38c0-1,0-2,0-2.92s0-1.67-.06-2.2c0-.35.08-.52.32-.52h3c.16,0,.24.11.24.32l0,1.62a3.34,3.34,0,0,1,.92-1.77,2.07,2.07,0,0,1,1.44-.65,2.55,2.55,0,0,1,1.94,1,5,5,0,0,1,1.06,2.84,6.54,6.54,0,0,1,1.44-2.86,2.87,2.87,0,0,1,2.12-.94,3.54,3.54,0,0,1,3.06,2,11,11,0,0,1,1.22,5.66v12.84a.86.86,0,0,1-.08.36c-.05.11-.12.16-.2.16Z"/><path class="cls-4" d="M234.28,211.3a.75.75,0,0,1-.34,0s-.06-.12-.06-.28v-1.84a6.19,6.19,0,0,1-2.4,2.1,6.56,6.56,0,0,1-2.92.7,8,8,0,0,1-2.46-.42,5.83,5.83,0,0,1-3.68-3.26,6.76,6.76,0,0,1-.54-2.8,7,7,0,0,1,.7-3.14,6.08,6.08,0,0,1,2.14-2.38,10.4,10.4,0,0,1,3.5-1.42,24.58,24.58,0,0,1,5.26-.46,6.26,6.26,0,0,0-.14-1.34,3.59,3.59,0,0,0-.5-1.18,2.9,2.9,0,0,0-1-.94,3.24,3.24,0,0,0-1.62-.38,8.1,8.1,0,0,0-2.66.48A11.5,11.5,0,0,0,225,196c-.4.27-.67.39-.82.36s-.22-.17-.22-.44v-3.12c0-.05,0-.15,0-.3a.35.35,0,0,1,.14-.34,2.15,2.15,0,0,1,.52-.36,13.1,13.1,0,0,1,2.64-1.12,10,10,0,0,1,2.92-.44q3.84,0,5.74,1.94a7.62,7.62,0,0,1,1.9,5.58v8.8c0,.72,0,1.45,0,2.2a16.5,16.5,0,0,0,.14,2c0,.37-.12.56-.44.56Zm-8.12-6.12a2.59,2.59,0,0,0,.84,2.1,2.75,2.75,0,0,0,1.8.7,4.3,4.3,0,0,0,3.48-1.66,6.13,6.13,0,0,0,1.36-4v-.44q-4.27,0-5.88.86A2.67,2.67,0,0,0,226.16,205.18Z"/><path class="cls-4" d="M257.84,210.86a16.93,16.93,0,0,1-3,.76,13,13,0,0,1-2.54.2,6.71,6.71,0,0,1-3.32-.7,4.18,4.18,0,0,1-1.72-1.62,6.27,6.27,0,0,1-.68-2.44c-.08-.93-.12-2.2-.12-3.8V195.7h-4.4a.48.48,0,0,1-.48-.48v-3.16a.48.48,0,0,1,.48-.48h4.4v-5.8a.43.43,0,0,1,.16-.34.56.56,0,0,1,.36-.14h3.24a.52.52,0,0,1,.38.14.48.48,0,0,1,.14.34v5.8h6.72a.48.48,0,0,1,.48.48v3.16a.48.48,0,0,1-.48.48h-6.72v7.8a27.11,27.11,0,0,0,.12,3.32.94.94,0,0,0,.74.92,7.66,7.66,0,0,0,1.78.16,10.11,10.11,0,0,0,1.92-.2,16.14,16.14,0,0,0,2-.52c.13-.05.23-.06.28,0a.8.8,0,0,1,.16.38l.32,2.84A.49.49,0,0,1,257.84,210.86Z"/><path class="cls-4" d="M262.68,211.3a.48.48,0,0,1-.34-.14.52.52,0,0,1-.14-.38v-3.12a.48.48,0,0,1,.48-.48h5.44V194.86H263.4a.48.48,0,0,1-.34-.14.52.52,0,0,1-.14-.38v-3.12a.48.48,0,0,1,.48-.48H272a.48.48,0,0,1,.48.48v16h4.92a.48.48,0,0,1,.48.48v3.12c0,.35-.16.52-.48.52Zm7-23.72a2.93,2.93,0,0,1-2.16-.88,2.88,2.88,0,0,1-.88-2.12,3,3,0,0,1,.88-2.22,2.91,2.91,0,0,1,2.16-.9,3.07,3.07,0,0,1,3.12,3.12,2.86,2.86,0,0,1-.9,2.12A3,3,0,0,1,269.72,187.58Z"/><path class="cls-4" d="M296.28,208.5a7.94,7.94,0,0,1-2.74,2.54,7.8,7.8,0,0,1-7.08,0,7.64,7.64,0,0,1-2.6-2.34,10.65,10.65,0,0,1-1.58-3.46,17.22,17.22,0,0,1,0-8.4,10.45,10.45,0,0,1,1.58-3.44,7.81,7.81,0,0,1,2.58-2.32,7.92,7.92,0,0,1,7.1,0,7.68,7.68,0,0,1,2.6,2.32,10.45,10.45,0,0,1,1.58,3.44,16.22,16.22,0,0,1,.52,4.2,15.55,15.55,0,0,1-.52,4.12A11.6,11.6,0,0,1,296.28,208.5ZM290,194.18a2.66,2.66,0,0,0-1.76.6,4.58,4.58,0,0,0-1.18,1.58,9.64,9.64,0,0,0-.72,2.22,12.05,12.05,0,0,0,0,5,10.32,10.32,0,0,0,.72,2.22,4.48,4.48,0,0,0,1.18,1.6,2.85,2.85,0,0,0,3.5,0,4.41,4.41,0,0,0,1.2-1.6,10.32,10.32,0,0,0,.72-2.22,12.19,12.19,0,0,0,.26-2.5,12,12,0,0,0-.26-2.46,9.79,9.79,0,0,0-.72-2.2,4.68,4.68,0,0,0-1.2-1.6A2.63,2.63,0,0,0,290,194.18Z"/><path class="cls-4" d="M314,211.3a.42.42,0,0,1-.34-.18.64.64,0,0,1-.14-.38V199.58a8.76,8.76,0,0,0-.74-4.16,2.4,2.4,0,0,0-2.22-1.28,3.49,3.49,0,0,0-2.86,1.46,6.73,6.73,0,0,0-1.14,4.22v11c0,.35-.16.52-.48.52h-3.28a.42.42,0,0,1-.34-.18.64.64,0,0,1-.14-.38V196.38c0-1,0-2,0-2.92s0-1.67-.1-2.2c-.05-.35.13-.52.56-.52h3.12c.29,0,.41.11.36.32l0,1.46a5.62,5.62,0,0,1,1.9-1.65,5.14,5.14,0,0,1,2.58-.69,6.73,6.73,0,0,1,5,2.14q2.1,2.15,2.1,6.66v11.8c0,.35-.16.52-.48.52Z"/></svg>