<svg id="Layer_1" data-name="Layer 1" xmlns="http://www.w3.org/2000/svg" viewBox="0 0 3060 1940"><defs><style>.cls-1{fill:#db3729;}.cls-2{fill:#fff;}</style></defs><rect class="cls-1" width="1530" height="1940"/><path class="cls-2" d="M548.56,771c-73.45-28.72-198,195.73-325.8,161.21-9.58-2.59-47.84-12.93-67-46.78-16.55-29.15-15.72-70,5.16-96.05,19.12-23.88,52.36-31.94,72.2-36.75,17.94-4.35,42.35-7.25,42.13-10-.09-1-3.57-1.55-4.3-1.67-15.25-2.52-98.48-44.36-98-106.91.26-33.58,24.61-69.19,57.6-82.69,55.46-22.7,121.1,22.93,147,40.92,49.86,34.66,60.71,66.92,124.65,99.4,27.53,14,41.29,21,53.29,16.71,52.37-18.66,77.77-221.45-31.8-340.79-70.25-76.51-200.82-124-288.84-78.52C169.48,322.8,151.45,395.4,122.18,572.22,59.25,952.37,28.65,1146.1,70.61,1325.63c31.83,136.21,68.21,291.87,185.67,333.27,77.77,27.41,159.13-6.52,301.73-66,119.81-50,185.26-78.44,206.31-145.33,19.93-63.34-2-154.64-76.51-198-74-43.06-172.18-22.52-214,27.56-10.15,12.14-34.69,41.5-34.39,79.35.15,17.88,4.12,35.59-4.29,65.15-4.3,15.1-9,20.4-14.62,24.23-14,9.61-33.91,9.48-47.28,0-27.6-19.58-20.54-65.06-10.31-73.51.72-.59,4-3.09,3.44-4.17-.72-1.45-7.55.94-12.9,1.67-14,1.9-26.18-6.5-30.09-9.19-12-8.3-23.07-24.12-21.49-41.76,2.53-28.06,35.2-40.79,37.83-41.77,20.86-7.77,31.69,1.19,61.89-.83,0,0,23.31-1.56,57.59-15.87C537,1228,644,808.35,548.56,771Z"/><path class="cls-1" d="M2377.63,1175.27c-46.79,248.62-104.71,265.31-76.71,338.34,41.8,109,212,178.89,345.55,146.59,169.89-41.09,238.75-237.41,293.65-394,30.11-85.86,167-476.23-34.15-777.55-74-110.79-218.35-246.54-305.32-210.57-63.8,26.39-70.49,134.3-71.35,148.24-6.86,110.69,118.74,300.56,226.94,288.88,39.1-4.22,68.76-34,93.8-17.36,13.12,8.71,21.49,27.84,17.54,43.35-7.84,30.81-61.71,37.24-60,47.39,1.93,11.51,69.89-3.66,89.44,27,8.94,14,6.87,36.28-4,48.91-25.5,29.69-97,3.11-99.74,12.38-3.22,10.74,96.53,33.46,101.49,80.91,1.53,14.63-6.07,30.6-17.66,39.1-37.94,27.82-115.88-26.41-122.38-15.87-6.32,10.27,72.31,54,64,92.43-3.66,16.92-23.75,31-41.2,32-15.94,1-25.55-9.19-80-45.22-22.39-14.8-28-17.89-32.52-15.48-15.11,8.12,15.95,60.55-6.6,92.19-16.64,23.36-60.1,32-79.25,16.09-26.11-21.72,12.17-73.18-14.65-115.06-22.76-35.53-83.75-50.58-122.9-32.31C2398.31,1025.89,2394.84,1083.76,2377.63,1175.27Z"/></svg>