<svg id="Layer_1" data-name="Layer 1" xmlns="http://www.w3.org/2000/svg" viewBox="0 0 460 350"><defs><style>.cls-1{fill:#db3729;}.cls-2{opacity:0.62;}.cls-3{fill:#ffc1b4;}.cls-4{fill:#fff;}</style></defs><circle class="cls-1" cx="230" cy="175" r="174"/><g class="cls-2"><path class="cls-3" d="M204.08,305.34V321l19.1-10.65c1.81.09,4.37.15,7.42,0,6.34-.3,27.81-1.3,38.2-12.73,8.57-9.42,5.79-21.76,0-29.69-10.15-13.91-33.86-20.22-53.58-16.59-4.68.86-22.54,4.75-29.7,17.74-4.86,8.82-3.27,19.06,3.71,26.62A34.62,34.62,0,0,0,199.31,303"/><path class="cls-3" d="M205.67,270.24c0,2.1,44.57,5.15,45.09,3.09.27-1.08-11.85-2.71-22.28-3.48C217.54,269.05,205.69,269.13,205.67,270.24Z"/><path class="cls-3" d="M203.58,278.56c0,2.11,44.57,5.15,45.09,3.09.27-1.07-11.85-2.71-22.28-3.47C215.45,277.38,203.59,277.46,203.58,278.56Z"/><path class="cls-3" d="M203.58,287.05c0,2.1,44.57,5.15,45.09,3.09.27-1.08-11.85-2.71-22.28-3.48C215.45,285.86,203.59,285.94,203.58,287.05Z"/></g><path class="cls-4" d="M213.1,309.05v21.54L232.2,316a60.27,60.27,0,0,0,7.42,0c6.34-.41,27.8-1.8,38.19-17.51,8.58-13,5.8-29.93,0-40.84-10.15-19.12-33.85-27.8-53.57-22.81-4.68,1.18-22.54,6.54-29.71,24.4a40,40,0,0,0,3.72,36.6,37.45,37.45,0,0,0,10.08,10.08"/><path class="cls-1" d="M214.69,260.78c0,2.89,44.57,7.08,45.09,4.24.27-1.47-11.85-3.72-22.28-4.77C226.56,259.15,214.7,259.26,214.69,260.78Z"/><path class="cls-1" d="M212.6,272.23c0,2.89,44.57,7.08,45.09,4.24.27-1.47-11.86-3.72-22.28-4.77C224.47,270.6,212.61,270.71,212.6,272.23Z"/><path class="cls-1" d="M212.6,283.9c0,2.89,44.57,7.08,45.09,4.24.27-1.47-11.86-3.72-22.28-4.77C224.47,282.27,212.61,282.38,212.6,283.9Z"/><path class="cls-4" d="M107.08,162.59a5.72,5.72,0,0,1-1.18.62,10,10,0,0,1-1.48.46,12.13,12.13,0,0,1-1.58.3,10.23,10.23,0,0,1-1.4.1,7.81,7.81,0,0,1-3.9-1,10.16,10.16,0,0,1-3.3-3A15.24,15.24,0,0,1,92,155.37a19.84,19.84,0,0,1-.78-5.7,19.38,19.38,0,0,1,.74-5.36,16.54,16.54,0,0,1,2.14-4.64,11,11,0,0,1,3.26-3.24,7.86,7.86,0,0,1,4.06-1.2,16.06,16.06,0,0,1,2.72.24,10.93,10.93,0,0,1,2.56.76.61.61,0,0,1,.34.26.44.44,0,0,1,0,.3l-.32,3.32a.8.8,0,0,1-.14.4c-.07.08-.19.07-.38,0a12.66,12.66,0,0,0-2.36-.76,12,12,0,0,0-2.44-.24,3.76,3.76,0,0,0-2.22.84,6.65,6.65,0,0,0-1.92,2.34,14.71,14.71,0,0,0-1.22,3.28,15.76,15.76,0,0,0-.44,3.74,17.09,17.09,0,0,0,.44,4,13.15,13.15,0,0,0,1.24,3.3,6.88,6.88,0,0,0,1.74,2.2,3.7,3.7,0,0,0,2.38.74,5.32,5.32,0,0,0,1.3-.16c.44-.1.67-.26.7-.48v-6.88H99.2a.24.24,0,0,1-.24-.14.68.68,0,0,1-.08-.34v-3.16a.72.72,0,0,1,.1-.4.31.31,0,0,1,.26-.16H107a.52.52,0,0,1,.48.2,1.78,1.78,0,0,1,.12.8v12a2.05,2.05,0,0,1-.16.92A2,2,0,0,1,107.08,162.59Z"/><path class="cls-4" d="M112.28,163.51a.44.44,0,0,1-.34-.14.52.52,0,0,1-.14-.38v-3.12a.49.49,0,0,1,.14-.34.48.48,0,0,1,.34-.14h2.52V147h-3.28a.44.44,0,0,1-.34-.14.52.52,0,0,1-.14-.38v-3a.49.49,0,0,1,.14-.34.48.48,0,0,1,.34-.14h6.56a.38.38,0,0,1,.26.1.35.35,0,0,1,.1.26v3.4a9.07,9.07,0,0,1,.86-1.46,9,9,0,0,1,1-1.12,7.53,7.53,0,0,1,1.24-.92,7.68,7.68,0,0,1,2.06-.74,8.9,8.9,0,0,1,3.34.08,6.48,6.48,0,0,1,2.7,1.24c.13.14.19.26.16.36s-.05.22-.08.32l-1.32,2.72a.48.48,0,0,1-.26.32.49.49,0,0,1-.46-.08,6.67,6.67,0,0,0-2-.72,6.25,6.25,0,0,0-2.2,0,4.66,4.66,0,0,0-3,1.8,6.68,6.68,0,0,0-1.32,2.92,22.09,22.09,0,0,0-.24,3.48v4.48h4.16a.48.48,0,0,1,.34.14.49.49,0,0,1,.14.34V163c0,.35-.16.52-.48.52Z"/><path class="cls-4" d="M144.16,163.51a.47.47,0,0,1-.3-.1.36.36,0,0,1-.14-.3v-1.65a5.29,5.29,0,0,1-1.94,2,5.43,5.43,0,0,1-2.74.68,6.2,6.2,0,0,1-4.94-2.28,9.8,9.8,0,0,1-1.94-6.52V143.51a.64.64,0,0,1,.14-.38.38.38,0,0,1,.3-.18H136a.38.38,0,0,1,.3.2.75.75,0,0,1,.14.4v11.16a7.89,7.89,0,0,0,.84,4.24,2.58,2.58,0,0,0,2.24,1.24,3.32,3.32,0,0,0,2.84-1.64,8.65,8.65,0,0,0,1.12-4.88V143.51a.64.64,0,0,1,.14-.38A.45.45,0,0,1,144,143h3.32c.11,0,.21.08.3.22a.84.84,0,0,1,.14.42v14.76c0,.83,0,1.64,0,2.44s0,1.54,0,2.2c0,.35-.15.52-.44.52Z"/><path class="cls-4" d="M164,163.51a.42.42,0,0,1-.34-.18.62.62,0,0,1-.14-.38V151.79a8.78,8.78,0,0,0-.74-4.16,2.4,2.4,0,0,0-2.22-1.28,3.49,3.49,0,0,0-2.86,1.46A6.75,6.75,0,0,0,156.6,152v11c0,.35-.16.52-.48.52h-3.28a.42.42,0,0,1-.34-.18.62.62,0,0,1-.14-.38V148.59c0-1,0-2,0-2.92s-.05-1.66-.1-2.2c-.05-.34.13-.52.56-.52h3.12q.44,0,.36.33l0,1.45a5.73,5.73,0,0,1,1.9-1.65,5.14,5.14,0,0,1,2.58-.69,6.77,6.77,0,0,1,5,2.14q2.1,2.15,2.1,6.66V163c0,.35-.16.52-.48.52Z"/><path class="cls-4" d="M178.72,164a6.42,6.42,0,0,1-3.22-.78,7,7,0,0,1-2.36-2.2,10.7,10.7,0,0,1-1.5-3.48,17.64,17.64,0,0,1-.52-4.38,16.11,16.11,0,0,1,.54-3.9,12.48,12.48,0,0,1,1.52-3.66,7.22,7.22,0,0,1,2.36-2.34,6.17,6.17,0,0,1,3.18-.82,5.35,5.35,0,0,1,2.5.62,6,6,0,0,1,2.06,1.86V133.75a.68.68,0,0,1,.08-.4.48.48,0,0,1,.32-.08h3.44c.29,0,.44.16.44.48v29.16c0,.4-.19.6-.56.6h-3.2c-.35,0-.52-.2-.52-.6v-1.56a5,5,0,0,1-2,1.92A5.24,5.24,0,0,1,178.72,164Zm.92-17.48a3.23,3.23,0,0,0-3,2,11.08,11.08,0,0,0,0,9.46,3.26,3.26,0,0,0,2.92,2,2.47,2.47,0,0,0,1.48-.52,4.44,4.44,0,0,0,1.26-1.48,8.05,8.05,0,0,0,.82-2.3,12,12,0,0,0,.28-2.5,10,10,0,0,0-1-4.74A3.13,3.13,0,0,0,179.64,146.51Z"/><path class="cls-4" d="M192.8,163.51a.44.44,0,0,1-.34-.14.52.52,0,0,1-.14-.38v-3.12a.49.49,0,0,1,.14-.34.48.48,0,0,1,.34-.14h5.44v-21.8h-4.16a.44.44,0,0,1-.34-.14.52.52,0,0,1-.14-.38V134a.49.49,0,0,1,.14-.34.48.48,0,0,1,.34-.14h8a.48.48,0,0,1,.34.14.49.49,0,0,1,.14.34v25.44h4.92a.48.48,0,0,1,.34.14.49.49,0,0,1,.14.34V163c0,.35-.16.52-.48.52Z"/><path class="cls-4" d="M245.2,152.79v1.44H231.68a6.59,6.59,0,0,0,1.26,4,4,4,0,0,0,3.34,1.48,5.14,5.14,0,0,0,3.32-.86,4.22,4.22,0,0,0,1.36-2.62h4.24a9.5,9.5,0,0,1-2.84,5.6,8.78,8.78,0,0,1-6,1.92,9,9,0,0,1-4-.86,8,8,0,0,1-3.08-2.66,6.76,6.76,0,0,1-3.06,2.66,11.11,11.11,0,0,1-4.58.86,7.66,7.66,0,0,1-5-1.54,5.69,5.69,0,0,1-1.92-4.74,5.76,5.76,0,0,1,.58-2.66,5.68,5.68,0,0,1,1.78-2,11.79,11.79,0,0,1,3.06-1.48,34.29,34.29,0,0,1,4.42-1.1,5.09,5.09,0,0,0,1.66-.64,1.52,1.52,0,0,0,.82-1.4,2.14,2.14,0,0,0-.86-1.9,4.35,4.35,0,0,0-2.42-.58,4.61,4.61,0,0,0-2.72.74,2.74,2.74,0,0,0-1,2.38h-4.48a7.16,7.16,0,0,1,.64-3.16,6.22,6.22,0,0,1,1.76-2.2,7.58,7.58,0,0,1,2.64-1.3,12.42,12.42,0,0,1,3.32-.42,12.58,12.58,0,0,1,3.7.52,5.21,5.21,0,0,1,2.66,1.84,7.87,7.87,0,0,1,2.66-1.76,8.81,8.81,0,0,1,3.3-.6,9,9,0,0,1,3.88.8,7.87,7.87,0,0,1,2.82,2.26,10.31,10.31,0,0,1,1.72,3.48,16.05,16.05,0,0,1,.58,4.46Zm-18.12.44a2.64,2.64,0,0,1-.74.46,3.15,3.15,0,0,1-.62.22c-1.28.3-2.34.57-3.18.82a9.81,9.81,0,0,0-2,.8,2.71,2.71,0,0,0-1,.9,2.34,2.34,0,0,0,.42,2.78,2.88,2.88,0,0,0,1.9.58,5.83,5.83,0,0,0,3.86-1.08,3.64,3.64,0,0,0,1.3-2.8Zm13.64-3h0a6,6,0,0,0-1.26-3.16,4,4,0,0,0-3.22-1.24,3.8,3.8,0,0,0-3.1,1.24,6.89,6.89,0,0,0-1.38,3.16Z"/><path class="cls-4" d="M258.88,169.47a17.11,17.11,0,0,1-2.66-.2,9.92,9.92,0,0,1-2.62-.76,1.35,1.35,0,0,1-.42-.28.53.53,0,0,1-.1-.36l.16-3.32c0-.45.25-.57.68-.36a9.67,9.67,0,0,0,2.48,1,10.36,10.36,0,0,0,2.52.32,4.32,4.32,0,0,0,3.42-1.38,5.34,5.34,0,0,0,1.26-3.54,5.43,5.43,0,0,1-1.92,1.56,5.07,5.07,0,0,1-2.24.52,6.71,6.71,0,0,1-3-.64,7.57,7.57,0,0,1-2.46-2,9.48,9.48,0,0,1-1.76-3.26,12.41,12.41,0,0,1-.6-3.8,12.27,12.27,0,0,1,2.12-7.56,6.7,6.7,0,0,1,5.6-2.8,6.92,6.92,0,0,1,1.9.26,4.58,4.58,0,0,1,1.64.88A5,5,0,0,1,264,145l0-1.48a.62.62,0,0,1,0-.42.57.57,0,0,1,.4-.1h2.88c.27,0,.4.19.4.56v15.36q0,5-2.24,7.82A7.86,7.86,0,0,1,258.88,169.47Zm.88-23a3.06,3.06,0,0,0-2.82,1.86,9.79,9.79,0,0,0-1,4.58,10.16,10.16,0,0,0,.3,2.56,5.29,5.29,0,0,0,.84,1.88,5.12,5.12,0,0,0,1.14,1.14,2.31,2.31,0,0,0,1.36.42,2.8,2.8,0,0,0,1.54-.42,4,4,0,0,0,1.14-1.1,6.28,6.28,0,0,0,.82-1.88,9.35,9.35,0,0,0,.34-2.6,9.89,9.89,0,0,0-1-4.6A3,3,0,0,0,259.76,146.47Z"/><path class="cls-4" d="M278.88,169.47a17.11,17.11,0,0,1-2.66-.2,9.92,9.92,0,0,1-2.62-.76,1.35,1.35,0,0,1-.42-.28.53.53,0,0,1-.1-.36l.16-3.32c0-.45.25-.57.68-.36a9.67,9.67,0,0,0,2.48,1,10.36,10.36,0,0,0,2.52.32,4.32,4.32,0,0,0,3.42-1.38,5.34,5.34,0,0,0,1.26-3.54,5.43,5.43,0,0,1-1.92,1.56,5.07,5.07,0,0,1-2.24.52,6.71,6.71,0,0,1-3-.64,7.57,7.57,0,0,1-2.46-2,9.48,9.48,0,0,1-1.76-3.26,12.41,12.41,0,0,1-.6-3.8,12.27,12.27,0,0,1,2.12-7.56,6.7,6.7,0,0,1,5.6-2.8,6.92,6.92,0,0,1,1.9.26,4.58,4.58,0,0,1,1.64.88A5,5,0,0,1,284,145l0-1.48a.62.62,0,0,1,0-.42.57.57,0,0,1,.4-.1h2.88c.27,0,.4.19.4.56v15.36q0,5-2.24,7.82A7.86,7.86,0,0,1,278.88,169.47Zm.88-23a3.06,3.06,0,0,0-2.82,1.86,9.79,9.79,0,0,0-1,4.58,10.16,10.16,0,0,0,.3,2.56,5.29,5.29,0,0,0,.84,1.88,5.12,5.12,0,0,0,1.14,1.14,2.31,2.31,0,0,0,1.36.42,2.8,2.8,0,0,0,1.54-.42,4,4,0,0,0,1.14-1.1,6.28,6.28,0,0,0,.82-1.88,9.35,9.35,0,0,0,.34-2.6,9.89,9.89,0,0,0-1-4.6A3,3,0,0,0,279.76,146.47Z"/><path class="cls-4" d="M308,154.43a.63.63,0,0,1-.14.46.48.48,0,0,1-.38.14h-11a6.31,6.31,0,0,0,1.1,3.62,3.9,3.9,0,0,0,3.42,1.5,8.49,8.49,0,0,0,2.54-.34,7.69,7.69,0,0,0,2.26-1.18c.21-.1.34-.09.38,0a1.75,1.75,0,0,1,.06.48V162a1,1,0,0,1-.12.54,1.47,1.47,0,0,1-.4.38,10.53,10.53,0,0,1-2.1.88,9,9,0,0,1-2.62.32q-4.56,0-6.8-2.92a12.36,12.36,0,0,1-2.24-7.72,16.55,16.55,0,0,1,.48-4,11.33,11.33,0,0,1,1.5-3.5,8.63,8.63,0,0,1,2.58-2.56,6.58,6.58,0,0,1,3.6-1,6.9,6.9,0,0,1,3.66.92,7.52,7.52,0,0,1,2.44,2.42,10.61,10.61,0,0,1,1.36,3.42,19.48,19.48,0,0,1,.42,4.16c0,.19,0,.4,0,.62S308,154.35,308,154.43ZM300,146.27a2.8,2.8,0,0,0-1.7.54,3.69,3.69,0,0,0-1.16,1.44,6.93,6.93,0,0,0-.56,1.64,7.16,7.16,0,0,0-.14,1.18h7.16a7.16,7.16,0,0,0-.14-1.18,6.93,6.93,0,0,0-.56-1.64,3.56,3.56,0,0,0-1.18-1.44A2.9,2.9,0,0,0,300,146.27Z"/><path class="cls-4" d="M324,163.51a.42.42,0,0,1-.34-.18.62.62,0,0,1-.14-.38V151.79a8.78,8.78,0,0,0-.74-4.16,2.4,2.4,0,0,0-2.22-1.28,3.49,3.49,0,0,0-2.86,1.46A6.75,6.75,0,0,0,316.6,152v11c0,.35-.16.52-.48.52h-3.28a.42.42,0,0,1-.34-.18.62.62,0,0,1-.14-.38V148.59c0-1,0-2,0-2.92s0-1.66-.1-2.2c-.05-.34.13-.52.56-.52h3.12q.43,0,.36.33l0,1.45a5.73,5.73,0,0,1,1.9-1.65,5.14,5.14,0,0,1,2.58-.69,6.77,6.77,0,0,1,5,2.14q2.1,2.15,2.1,6.66V163c0,.35-.16.52-.48.52Z"/><path class="cls-4" d="M338.72,164a6.42,6.42,0,0,1-3.22-.78,7,7,0,0,1-2.36-2.2,10.7,10.7,0,0,1-1.5-3.48,17.64,17.64,0,0,1-.52-4.38,16.11,16.11,0,0,1,.54-3.9,12.48,12.48,0,0,1,1.52-3.66,7.22,7.22,0,0,1,2.36-2.34,6.17,6.17,0,0,1,3.18-.82,5.35,5.35,0,0,1,2.5.62,6,6,0,0,1,2.06,1.86V133.75a.68.68,0,0,1,.08-.4.48.48,0,0,1,.32-.08h3.44c.29,0,.44.16.44.48v29.16c0,.4-.19.6-.56.6h-3.2c-.35,0-.52-.2-.52-.6v-1.56a5,5,0,0,1-2,1.92A5.24,5.24,0,0,1,338.72,164Zm.92-17.48a3.23,3.23,0,0,0-3,2,11.08,11.08,0,0,0,0,9.46,3.26,3.26,0,0,0,2.92,2,2.47,2.47,0,0,0,1.48-.52,4.44,4.44,0,0,0,1.26-1.48,8.05,8.05,0,0,0,.82-2.3,12,12,0,0,0,.28-2.5,10,10,0,0,0-1-4.74A3.13,3.13,0,0,0,339.64,146.51Z"/><path class="cls-4" d="M368,154.43a.63.63,0,0,1-.14.46.48.48,0,0,1-.38.14h-11a6.31,6.31,0,0,0,1.1,3.62,3.9,3.9,0,0,0,3.42,1.5,8.49,8.49,0,0,0,2.54-.34,7.69,7.69,0,0,0,2.26-1.18c.21-.1.34-.09.38,0a1.75,1.75,0,0,1,.06.48V162a1,1,0,0,1-.12.54,1.47,1.47,0,0,1-.4.38,10.53,10.53,0,0,1-2.1.88,9,9,0,0,1-2.62.32q-4.56,0-6.8-2.92a12.36,12.36,0,0,1-2.24-7.72,16.55,16.55,0,0,1,.48-4,11.33,11.33,0,0,1,1.5-3.5,8.63,8.63,0,0,1,2.58-2.56,6.58,6.58,0,0,1,3.6-1,6.9,6.9,0,0,1,3.66.92,7.52,7.52,0,0,1,2.44,2.42,10.61,10.61,0,0,1,1.36,3.42,19.48,19.48,0,0,1,.42,4.16c0,.19,0,.4,0,.62S368,154.35,368,154.43ZM360,146.27a2.8,2.8,0,0,0-1.7.54,3.69,3.69,0,0,0-1.16,1.44,6.93,6.93,0,0,0-.56,1.64,7.16,7.16,0,0,0-.14,1.18h7.16a7.16,7.16,0,0,0-.14-1.18,6.93,6.93,0,0,0-.56-1.64,3.56,3.56,0,0,0-1.18-1.44A2.9,2.9,0,0,0,360,146.27Z"/><path class="cls-4" d="M162.68,211.51a.44.44,0,0,1-.34-.14.52.52,0,0,1-.14-.38v-3.12a.49.49,0,0,1,.14-.34.48.48,0,0,1,.34-.14h5.44V195.07H163.4a.44.44,0,0,1-.34-.14.52.52,0,0,1-.14-.38v-3.12a.49.49,0,0,1,.14-.34.48.48,0,0,1,.34-.14H172a.48.48,0,0,1,.34.14.49.49,0,0,1,.14.34v16h4.92a.48.48,0,0,1,.34.14.49.49,0,0,1,.14.34V211c0,.35-.16.52-.48.52Zm7-23.72a2.93,2.93,0,0,1-2.16-.88,2.86,2.86,0,0,1-.88-2.12,3,3,0,0,1,.88-2.22,2.91,2.91,0,0,1,2.16-.9,3.07,3.07,0,0,1,3.12,3.12,2.84,2.84,0,0,1-.9,2.12A3,3,0,0,1,169.72,187.79Z"/><path class="cls-4" d="M194,211.51a.42.42,0,0,1-.34-.18.62.62,0,0,1-.14-.38V199.79a8.78,8.78,0,0,0-.74-4.16,2.4,2.4,0,0,0-2.22-1.28,3.49,3.49,0,0,0-2.86,1.46A6.75,6.75,0,0,0,186.6,200v11c0,.35-.16.52-.48.52h-3.28a.42.42,0,0,1-.34-.18.62.62,0,0,1-.14-.38V196.59c0-1,0-2,0-2.92s-.05-1.66-.1-2.2c-.05-.34.13-.52.56-.52h3.12q.44,0,.36.33l0,1.45a5.73,5.73,0,0,1,1.9-1.65,5.14,5.14,0,0,1,2.58-.69,6.77,6.77,0,0,1,5,2.14q2.1,2.15,2.1,6.66V211c0,.35-.16.52-.48.52Z"/><path class="cls-4" d="M208.72,212a6.42,6.42,0,0,1-3.22-.78,7,7,0,0,1-2.36-2.2,10.7,10.7,0,0,1-1.5-3.48,17.64,17.64,0,0,1-.52-4.38,16.11,16.11,0,0,1,.54-3.9,12.48,12.48,0,0,1,1.52-3.66,7.22,7.22,0,0,1,2.36-2.34,6.17,6.17,0,0,1,3.18-.82,5.35,5.35,0,0,1,2.5.62,6,6,0,0,1,2.06,1.86V181.75a.68.68,0,0,1,.08-.4.48.48,0,0,1,.32-.08h3.44c.29,0,.44.16.44.48v29.16c0,.4-.19.6-.56.6h-3.2c-.35,0-.52-.2-.52-.6v-1.56a5,5,0,0,1-2,1.92A5.24,5.24,0,0,1,208.72,212Zm.92-17.48a3.23,3.23,0,0,0-3,2,11.08,11.08,0,0,0,0,9.46,3.26,3.26,0,0,0,2.92,2,2.47,2.47,0,0,0,1.48-.52,4.44,4.44,0,0,0,1.26-1.48,8.05,8.05,0,0,0,.82-2.3,12,12,0,0,0,.28-2.5,10,10,0,0,0-1-4.74A3.13,3.13,0,0,0,209.64,194.51Z"/><path class="cls-4" d="M233.52,211.51A.42.42,0,0,1,233,211V200.39a10.54,10.54,0,0,0-.68-4.38,2.29,2.29,0,0,0-2.2-1.38c-2.43,0-3.77,1.42-4,4.24V211c0,.32-.15.48-.44.48h-3.36a.39.39,0,0,1-.3-.14.46.46,0,0,1-.14-.34V181.91a.49.49,0,0,1,.14-.34.42.42,0,0,1,.3-.14h3.12a.37.37,0,0,1,.28.14.52.52,0,0,1,.12.34v10.8a5.75,5.75,0,0,1,4.48-2.16q7,0,7,9.8V211a.46.46,0,0,1-.14.34.39.39,0,0,1-.3.14Z"/><path class="cls-4" d="M256.28,208.71a7.94,7.94,0,0,1-2.74,2.54,7.19,7.19,0,0,1-3.54.86,7.29,7.29,0,0,1-3.54-.84,7.64,7.64,0,0,1-2.6-2.34,10.65,10.65,0,0,1-1.58-3.46,17.22,17.22,0,0,1,0-8.4,10.54,10.54,0,0,1,1.58-3.44,7.92,7.92,0,0,1,2.58-2.32,7.92,7.92,0,0,1,7.1,0,7.79,7.79,0,0,1,2.6,2.32,10.54,10.54,0,0,1,1.58,3.44,16.22,16.22,0,0,1,.52,4.2,15.55,15.55,0,0,1-.52,4.12A11.6,11.6,0,0,1,256.28,208.71ZM250,194.39a2.66,2.66,0,0,0-1.76.6,4.58,4.58,0,0,0-1.18,1.58,10,10,0,0,0-.72,2.22,12.37,12.37,0,0,0-.26,2.48,12.12,12.12,0,0,0,.26,2.5,10,10,0,0,0,.72,2.22,4.48,4.48,0,0,0,1.18,1.6,2.85,2.85,0,0,0,3.5,0,4.41,4.41,0,0,0,1.2-1.6,10,10,0,0,0,.72-2.22,12,12,0,0,0,0-5,10,10,0,0,0-.72-2.2,4.78,4.78,0,0,0-1.2-1.6A2.63,2.63,0,0,0,250,194.39Z"/><path class="cls-4" d="M262.8,211.51a.44.44,0,0,1-.34-.14.52.52,0,0,1-.14-.38v-3.12a.49.49,0,0,1,.14-.34.48.48,0,0,1,.34-.14h5.44v-21.8h-4.16a.44.44,0,0,1-.34-.14.52.52,0,0,1-.14-.38V182a.49.49,0,0,1,.14-.34.48.48,0,0,1,.34-.14h8a.48.48,0,0,1,.34.14.49.49,0,0,1,.14.34v25.44h4.92a.48.48,0,0,1,.34.14.49.49,0,0,1,.14.34V211c0,.35-.16.52-.48.52Z"/><path class="cls-4" d="M288.72,212a6.42,6.42,0,0,1-3.22-.78,7,7,0,0,1-2.36-2.2,10.7,10.7,0,0,1-1.5-3.48,17.64,17.64,0,0,1-.52-4.38,16.11,16.11,0,0,1,.54-3.9,12.48,12.48,0,0,1,1.52-3.66,7.22,7.22,0,0,1,2.36-2.34,6.17,6.17,0,0,1,3.18-.82,5.35,5.35,0,0,1,2.5.62,6,6,0,0,1,2.06,1.86V181.75a.68.68,0,0,1,.08-.4.48.48,0,0,1,.32-.08h3.44c.29,0,.44.16.44.48v29.16c0,.4-.19.6-.56.6h-3.2c-.35,0-.52-.2-.52-.6v-1.56a5,5,0,0,1-2,1.92A5.24,5.24,0,0,1,288.72,212Zm.92-17.48a3.23,3.23,0,0,0-3,2,11.08,11.08,0,0,0,0,9.46,3.26,3.26,0,0,0,2.92,2,2.47,2.47,0,0,0,1.48-.52,4.44,4.44,0,0,0,1.26-1.48,8.05,8.05,0,0,0,.82-2.3,12,12,0,0,0,.28-2.5,10,10,0,0,0-1-4.74A3.13,3.13,0,0,0,289.64,194.51Z"/></svg>